<svg width="24" height="25" viewBox="0 0 24 25" fill="none" xmlns="http://www.w3.org/2000/svg">
<path d="M22.675 0.9646H1.325C0.593 0.9646 0 1.5576 0 2.2896V23.6406C0 24.3716 0.593 24.9646 1.325 24.9646H12.82V15.6706H9.692V12.0486H12.82V9.3776C12.82 6.2776 14.713 4.5896 17.479 4.5896C18.804 4.5896 19.942 4.6886 20.274 4.7326V7.9726L18.356 7.9736C16.852 7.9736 16.561 8.6886 16.561 9.7366V12.0496H20.148L19.681 15.6716H16.561V24.9646H22.677C23.407 24.9646 24 24.3716 24 23.6396V2.2896C24 1.5576 23.407 0.9646 22.675 0.9646Z" fill="#A9D300"/>
</svg>
