<svg width="24" height="25" viewBox="0 0 24 25" fill="none" xmlns="http://www.w3.org/2000/svg">
<path d="M12 3.1276C15.204 3.1276 15.584 3.1396 16.85 3.1976C20.102 3.3456 21.621 4.8886 21.769 8.1166C21.827 9.3816 21.838 9.7616 21.838 12.9656C21.838 16.1706 21.826 16.5496 21.769 17.8146C21.62 21.0396 20.105 22.5856 16.85 22.7336C15.584 22.7916 15.206 22.8036 12 22.8036C8.796 22.8036 8.416 22.7916 7.151 22.7336C3.891 22.5846 2.38 21.0346 2.232 17.8136C2.174 16.5486 2.162 16.1696 2.162 12.9646C2.162 9.7606 2.175 9.3816 2.232 8.1156C2.381 4.8886 3.896 3.3446 7.151 3.1966C8.417 3.1396 8.796 3.1276 12 3.1276ZM12 0.9646C8.741 0.9646 8.333 0.9786 7.053 1.0366C2.695 1.2366 0.273 3.6546 0.073 8.0166C0.014 9.2976 0 9.7056 0 12.9646C0 16.2236 0.014 16.6326 0.072 17.9126C0.272 22.2706 2.69 24.6926 7.052 24.8926C8.333 24.9506 8.741 24.9646 12 24.9646C15.259 24.9646 15.668 24.9506 16.948 24.8926C21.302 24.6926 23.73 22.2746 23.927 17.9126C23.986 16.6326 24 16.2236 24 12.9646C24 9.7056 23.986 9.2976 23.928 8.0176C23.732 3.6636 21.311 1.2376 16.949 1.0376C15.668 0.9786 15.259 0.9646 12 0.9646ZM12 6.8026C8.597 6.8026 5.838 9.5616 5.838 12.9646C5.838 16.3676 8.597 19.1276 12 19.1276C15.403 19.1276 18.162 16.3686 18.162 12.9646C18.162 9.5616 15.403 6.8026 12 6.8026ZM12 16.9646C9.791 16.9646 8 15.1746 8 12.9646C8 10.7556 9.791 8.9646 12 8.9646C14.209 8.9646 16 10.7556 16 12.9646C16 15.1746 14.209 16.9646 12 16.9646ZM18.406 5.1196C17.61 5.1196 16.965 5.7646 16.965 6.5596C16.965 7.3546 17.61 7.9996 18.406 7.9996C19.201 7.9996 19.845 7.3546 19.845 6.5596C19.845 5.7646 19.201 5.1196 18.406 5.1196Z" fill="#A9D300"/>
</svg>
