<svg width="249" height="88" viewBox="0 0 249 88" fill="none" xmlns="http://www.w3.org/2000/svg">
<path fill-rule="evenodd" clip-rule="evenodd" d="M57.4907 35.376L57.4209 35.5554H74.2008L72.1648 37.708H56.5997L51.3469 51.3192H45.0851L53.7837 35.376H57.4907Z" fill="#222222"/>
<path fill-rule="evenodd" clip-rule="evenodd" d="M133.706 35.376L133.636 35.5554H146.838L148.38 37.708H132.815L127.562 51.3192H121.3L129.999 35.376H133.706Z" fill="#222222"/>
<path fill-rule="evenodd" clip-rule="evenodd" d="M185.59 35.376L185.52 35.5554H202.3L200.264 37.708H184.699L179.446 51.3192H173.184L181.883 35.376H185.59Z" fill="#ABD407"/>
<path d="M45.9135 28.3588L33.456 59.5706H0L7.25656 41.5036H17.0536L13.182 51.3282H26.9974L36.1218 28.3677L45.9135 28.3588ZM83.3055 28.3588L70.848 59.5706H37.392L49.8942 28.3588H83.3055ZM120.698 28.3588L116.94 36.6335H93.3244L88.3149 51.2995H102.091L103.671 46.4311H95.7987L97.7667 41.5036H115.436L108.24 59.5706H74.784L87.2844 28.3588H120.698ZM158.09 28.3588L145.632 59.5706H135.792L139.311 51.4412H125.535L122.016 59.5706H112.176L124.675 28.3588H158.09ZM70.0286 36.9689H55.9127L50.0176 51.2672H64.1336L70.0286 36.9689ZM144.916 36.9689H132.214L129.475 43.4265H142.177L144.916 36.9689Z" fill="white"/>
<path d="M162.401 51.7712L159.435 59.5706H149.679L152.686 51.7658L162.401 51.7712ZM209.873 28.3588L197.403 59.5706H187.563L191.075 51.4465H177.299L173.774 59.5706H163.934L176.442 28.3588H209.873ZM223.994 28.3588L211.75 59.5706H202.089L214.367 28.3588H223.994ZM196.689 36.9689H183.978L181.244 43.4265H193.947L196.689 36.9689Z" fill="#A9D300"/>
<path d="M45.9135 28.3588L33.456 59.5706H0L8.7073 42.9581L17.0536 41.5036L13.182 51.3282H26.9974L37.5725 29.8223L45.9135 28.3588Z" fill="url(#paint0_linear_13_2405)"/>
<path d="M83.3055 28.3588L70.848 59.5706H37.392L50.9823 29.8133L83.3055 28.3588ZM70.0286 36.9689H55.9127L50.0176 51.2672H64.1336L70.0286 36.9689Z" fill="url(#paint1_linear_13_2405)"/>
<path d="M120.698 28.3588L116.94 36.6335H93.3244L88.3149 51.2995H102.091L103.671 46.4311H95.7987L97.7667 41.5036H115.436L108.24 59.5706H74.784L88.3725 29.8133L120.698 28.3588Z" fill="url(#paint2_linear_13_2405)"/>
<path d="M158.09 28.3588L145.632 59.5706H135.792L139.311 51.4412H125.535L122.016 59.5706H112.176L126.125 29.8133L158.09 28.3588ZM144.916 36.9689H132.214L129.475 43.4265H142.177L144.916 36.9689Z" fill="url(#paint3_linear_13_2405)"/>
<path d="M162.401 51.7712L159.435 59.5706H149.679L154.137 53.2204L162.401 51.7712Z" fill="url(#paint4_linear_13_2405)"/>
<path d="M209.873 28.3588L197.403 59.5706H187.563L191.075 51.4465H177.299L173.774 59.5706H163.934L177.893 29.8133L209.873 28.3588ZM196.689 36.9689H183.978L181.244 43.4265H193.947L196.689 36.9689Z" fill="url(#paint5_linear_13_2405)"/>
<path d="M223.994 28.3588L211.75 59.5706H202.089L215.818 29.8133L223.994 28.3588Z" fill="url(#paint6_linear_13_2405)"/>
<path d="M87.3035 28.3876H120.65L116.749 37.1374L93.8508 37.1373L88.6433 51.3229L102.094 51.3229L107.556 58.3606L114.641 41.5271H115.405L108.212 59.5417L107.773 59.5416L107.726 59.654L107.638 59.5416L74.8233 59.5417L87.3035 28.3876ZM36.1348 28.3876H45.87L33.4318 59.5417H0.0496971L7.27579 41.5325H17.0114L13.1399 51.3569H27.0103L36.1348 28.3876ZM49.9132 28.3876H83.2621L70.822 59.5417H37.4421L49.9132 28.3876ZM124.696 28.3876H158.042L145.604 59.5417H135.827L139.348 51.4123H125.511L121.992 59.5417H112.215L124.696 28.3876ZM44.8978 29.0473H36.5809L27.4567 52.0168H12.1722L16.0436 42.1922H7.72036L1.0237 58.8818H32.9864L44.8978 29.0473ZM82.2897 29.0473H50.3581L38.4153 58.8818H70.3765L82.2897 29.0473ZM119.635 29.0473H87.7484L75.7967 58.8818H107.126L101.773 51.9827L87.5356 51.9827L93.2274 36.4776L116.323 36.4775L119.635 29.0473ZM157.07 29.0473H125.14L113.189 58.8818H121.56L125.08 50.7525H140.351L136.83 58.8818H145.159L157.07 29.0473Z" fill="#AEAEAE"/>
<path d="M152.441 51.4125H162.922L159.682 59.9293H149.158L152.441 51.4125ZM176.2 28H210.397L197.639 59.9293H187.007L190.538 51.8053H177.532L174.011 59.9293H163.401L176.2 28ZM214.129 28H224.526L212.002 59.9293H201.566L214.129 28ZM161.888 52.13H152.942L150.201 59.2118H159.009L161.888 52.13ZM209.345 28.7175H176.684L164.459 59.2118H173.542L177.065 51.0824H191.628L188.103 59.2118H197.158L209.345 28.7175ZM223.468 28.7175H214.611L202.609 59.2118H211.506L223.468 28.7175Z" fill="#A9D300"/>
<defs>
<linearGradient id="paint0_linear_13_2405" x1="174.007" y1="36.6256" x2="174.46" y2="44.1955" gradientUnits="userSpaceOnUse">
<stop stop-color="white" stop-opacity="0.15"/>
<stop offset="1" stop-color="white" stop-opacity="0"/>
</linearGradient>
<linearGradient id="paint1_linear_13_2405" x1="61.7601" y1="36.6256" x2="62.2505" y2="45.14" gradientUnits="userSpaceOnUse">
<stop stop-color="white" stop-opacity="0.15"/>
<stop offset="1" stop-color="white" stop-opacity="0"/>
</linearGradient>
<linearGradient id="paint2_linear_13_2405" x1="61.8829" y1="36.6256" x2="62.3506" y2="45.0556" gradientUnits="userSpaceOnUse">
<stop stop-color="white" stop-opacity="0.15"/>
<stop offset="1" stop-color="white" stop-opacity="0"/>
</linearGradient>
<linearGradient id="paint3_linear_13_2405" x1="62.0628" y1="36.6256" x2="62.8495" y2="46.3001" gradientUnits="userSpaceOnUse">
<stop stop-color="white" stop-opacity="0.15"/>
<stop offset="1" stop-color="white" stop-opacity="0"/>
</linearGradient>
<linearGradient id="paint4_linear_13_2405" x1="57.7948" y1="37.996" x2="60.4823" y2="53.0105" gradientUnits="userSpaceOnUse">
<stop stop-color="white" stop-opacity="0.35"/>
<stop offset="1" stop-color="white" stop-opacity="0"/>
</linearGradient>
<linearGradient id="paint5_linear_13_2405" x1="61.7179" y1="36.6336" x2="62.5935" y2="46.6552" gradientUnits="userSpaceOnUse">
<stop stop-color="white" stop-opacity="0.35"/>
<stop offset="1" stop-color="white" stop-opacity="0"/>
</linearGradient>
<linearGradient id="paint6_linear_13_2405" x1="120.76" y1="28" x2="121.167" y2="35.0921" gradientUnits="userSpaceOnUse">
<stop stop-color="white" stop-opacity="0.35"/>
<stop offset="1" stop-color="white" stop-opacity="0"/>
</linearGradient>
</defs>
</svg>
