<svg width="273" height="80" viewBox="0 0 273 80" fill="none" xmlns="http://www.w3.org/2000/svg">
<path fill-rule="evenodd" clip-rule="evenodd" d="M81.4907 31.4114L81.4209 31.5907H98.2008L96.1648 33.7433H80.5997L75.3469 47.3545H69.0851L77.7837 31.4114H81.4907Z" fill="#222222"/>
<path fill-rule="evenodd" clip-rule="evenodd" d="M157.706 31.4114L157.636 31.5907H170.838L172.38 33.7433H156.815L151.562 47.3545H145.3L153.999 31.4114H157.706Z" fill="#222222"/>
<path fill-rule="evenodd" clip-rule="evenodd" d="M209.59 31.4114L209.52 31.5907H226.3L224.264 33.7433H208.699L203.446 47.3545H197.184L205.883 31.4114H209.59Z" fill="#ABD407"/>
<path d="M69.9135 24.3941L57.456 55.6059H24L31.2566 37.5389H41.0536L37.182 47.3635H50.9974L60.1218 24.403L69.9135 24.3941ZM107.305 24.3941L94.848 55.6059H61.392L73.8942 24.3941H107.305ZM144.698 24.3941L140.94 32.6688H117.324L112.315 47.3348H126.091L127.671 42.4664H119.799L121.767 37.5389H139.436L132.24 55.6059H98.784L111.284 24.3941H144.698ZM182.09 24.3941L169.632 55.6059H159.792L163.311 47.4765H149.535L146.016 55.6059H136.176L148.675 24.3941H182.09ZM94.0286 33.0042H79.9127L74.0176 47.3025H88.1336L94.0286 33.0042ZM168.916 33.0042H156.214L153.475 39.4619H166.177L168.916 33.0042Z" fill="white"/>
<path d="M186.401 47.8065L183.435 55.6059H173.679L176.686 47.8012L186.401 47.8065ZM233.873 24.3941L221.403 55.6059H211.563L215.075 47.4819H201.299L197.774 55.6059H187.934L200.442 24.3941H233.873ZM247.994 24.3941L235.75 55.6059H226.089L238.367 24.3941H247.994ZM220.689 33.0042H207.978L205.244 39.4619H217.947L220.689 33.0042Z" fill="#A9D300"/>
<path d="M69.9135 24.3941L57.456 55.6059H24L32.7073 38.9935L41.0536 37.5389L37.182 47.3635H50.9974L61.5725 25.8576L69.9135 24.3941Z" fill="url(#paint0_linear_21_10341)"/>
<path d="M107.305 24.3941L94.848 55.6059H61.392L74.9823 25.8486L107.305 24.3941ZM94.0286 33.0042H79.9127L74.0176 47.3025H88.1336L94.0286 33.0042Z" fill="url(#paint1_linear_21_10341)"/>
<path d="M144.698 24.3941L140.94 32.6688H117.324L112.315 47.3348H126.091L127.671 42.4664H119.799L121.767 37.5389H139.436L132.24 55.6059H98.784L112.372 25.8486L144.698 24.3941Z" fill="url(#paint2_linear_21_10341)"/>
<path d="M182.09 24.3941L169.632 55.6059H159.792L163.311 47.4765H149.535L146.016 55.6059H136.176L150.125 25.8486L182.09 24.3941ZM168.916 33.0042H156.214L153.475 39.4619H166.177L168.916 33.0042Z" fill="url(#paint3_linear_21_10341)"/>
<path d="M186.401 47.8065L183.435 55.6059H173.679L178.137 49.2557L186.401 47.8065Z" fill="url(#paint4_linear_21_10341)"/>
<path d="M233.873 24.3941L221.403 55.6059H211.563L215.075 47.4819H201.299L197.774 55.6059H187.934L201.893 25.8486L233.873 24.3941ZM220.689 33.0042H207.978L205.244 39.4619H217.947L220.689 33.0042Z" fill="url(#paint5_linear_21_10341)"/>
<path d="M247.994 24.3941L235.75 55.6059H226.089L239.818 25.8486L247.994 24.3941Z" fill="url(#paint6_linear_21_10341)"/>
<path d="M111.304 24.4229H144.65L140.749 33.1727L117.851 33.1726L112.643 47.3582L126.094 47.3583L131.556 54.3959L138.641 37.5624H139.405L132.212 55.5771L131.773 55.5769L131.726 55.6893L131.638 55.5769L98.8233 55.5771L111.304 24.4229ZM60.1348 24.4229H69.87L57.4318 55.5771H24.0497L31.2758 37.5678H41.0114L37.1399 47.3922H51.0103L60.1348 24.4229ZM73.9132 24.4229H107.262L94.822 55.5771H61.4421L73.9132 24.4229ZM148.696 24.4229H182.042L169.604 55.5771H159.827L163.348 47.4476H149.511L145.992 55.5771H136.215L148.696 24.4229ZM68.8978 25.0826H60.5809L51.4567 48.0521H36.1722L40.0436 38.2275H31.7204L25.0237 54.9171H56.9864L68.8978 25.0826ZM106.29 25.0826H74.3581L62.4153 54.9171H94.3765L106.29 25.0826ZM143.635 25.0826H111.748L99.7967 54.9171H131.126L125.773 48.018L111.536 48.0181L117.227 32.5129L140.323 32.5128L143.635 25.0826ZM181.07 25.0826H149.14L137.189 54.9171H145.56L149.08 46.7878H164.351L160.83 54.9171H169.159L181.07 25.0826Z" fill="#AEAEAE"/>
<path d="M176.441 47.4478H186.922L183.682 55.9647H173.158L176.441 47.4478ZM200.2 24.0353H234.397L221.639 55.9647H211.007L214.538 47.8406H201.532L198.011 55.9647H187.401L200.2 24.0353ZM238.129 24.0353H248.526L236.002 55.9647H225.566L238.129 24.0353ZM185.888 48.1653H176.942L174.201 55.2472H183.009L185.888 48.1653ZM233.345 24.7528H200.684L188.459 55.2472H197.542L201.065 47.1177H215.628L212.103 55.2472H221.158L233.345 24.7528ZM247.468 24.7528H238.611L226.609 55.2472H235.506L247.468 24.7528Z" fill="#A9D300"/>
<defs>
<linearGradient id="paint0_linear_21_10341" x1="198.007" y1="32.6609" x2="198.46" y2="40.2308" gradientUnits="userSpaceOnUse">
<stop stop-color="white" stop-opacity="0.15"/>
<stop offset="1" stop-color="white" stop-opacity="0"/>
</linearGradient>
<linearGradient id="paint1_linear_21_10341" x1="85.7601" y1="32.6609" x2="86.2505" y2="41.1753" gradientUnits="userSpaceOnUse">
<stop stop-color="white" stop-opacity="0.15"/>
<stop offset="1" stop-color="white" stop-opacity="0"/>
</linearGradient>
<linearGradient id="paint2_linear_21_10341" x1="85.8829" y1="32.6609" x2="86.3506" y2="41.0909" gradientUnits="userSpaceOnUse">
<stop stop-color="white" stop-opacity="0.15"/>
<stop offset="1" stop-color="white" stop-opacity="0"/>
</linearGradient>
<linearGradient id="paint3_linear_21_10341" x1="86.0628" y1="32.6609" x2="86.8495" y2="42.3354" gradientUnits="userSpaceOnUse">
<stop stop-color="white" stop-opacity="0.15"/>
<stop offset="1" stop-color="white" stop-opacity="0"/>
</linearGradient>
<linearGradient id="paint4_linear_21_10341" x1="81.7948" y1="34.0313" x2="84.4823" y2="49.0458" gradientUnits="userSpaceOnUse">
<stop stop-color="white" stop-opacity="0.35"/>
<stop offset="1" stop-color="white" stop-opacity="0"/>
</linearGradient>
<linearGradient id="paint5_linear_21_10341" x1="85.7179" y1="32.6689" x2="86.5935" y2="42.6906" gradientUnits="userSpaceOnUse">
<stop stop-color="white" stop-opacity="0.35"/>
<stop offset="1" stop-color="white" stop-opacity="0"/>
</linearGradient>
<linearGradient id="paint6_linear_21_10341" x1="144.76" y1="24.0353" x2="145.167" y2="31.1274" gradientUnits="userSpaceOnUse">
<stop stop-color="white" stop-opacity="0.35"/>
<stop offset="1" stop-color="white" stop-opacity="0"/>
</linearGradient>
</defs>
</svg>
