<svg width="192" height="72" viewBox="0 0 192 72" fill="none" xmlns="http://www.w3.org/2000/svg">
<path fill-rule="evenodd" clip-rule="evenodd" d="M43.0171 29.5443L42.9649 29.6791H55.5203L53.9969 31.2971H42.3504L38.42 41.5281H33.7347L40.2433 29.5443H43.0171Z" fill="#222222"/>
<path fill-rule="evenodd" clip-rule="evenodd" d="M100.045 29.5443L99.9925 29.6791H109.871L111.025 31.2971H99.3781L95.4477 41.5281H90.7623L97.271 29.5443H100.045Z" fill="#222222"/>
<path fill-rule="evenodd" clip-rule="evenodd" d="M138.866 29.5443L138.814 29.6791H151.37L149.846 31.2971H138.2L134.269 41.5281H129.584L136.093 29.5443H138.866Z" fill="#ABD407"/>
<path d="M34.3545 24.2697L25.0333 47.7303H0L5.42968 34.1501H12.7603L9.86338 41.5348H20.2006L27.0279 24.2764L34.3545 24.2697ZM62.3328 24.2697L53.0116 47.7303H27.9784L37.333 24.2697H62.3328ZM90.3112 24.2697L87.5 30.4894H69.8294L66.0811 41.5133H76.389L77.571 37.8539H71.6808L73.1534 34.1501H86.3741L80.99 47.7303H55.9567L65.3101 24.2697H90.3112ZM118.29 24.2697L108.968 47.7303H101.606L104.239 41.6198H93.931L91.2978 47.7303H83.9351L93.2871 24.2697H118.29ZM52.3985 30.7416H41.8363L37.4254 41.489H47.9876L52.3985 30.7416ZM108.433 30.7416H98.9283L96.8788 35.5955H106.383L108.433 30.7416Z" fill="white"/>
<path d="M121.516 41.8679L119.296 47.7303H111.996L114.247 41.8638L121.516 41.8679ZM157.036 24.2697L147.706 47.7303H140.343L142.971 41.6238H132.663L130.026 47.7303H122.663L132.022 24.2697H157.036ZM167.602 24.2697L158.441 47.7303H151.212L160.399 24.2697H167.602ZM147.172 30.7416H137.66L135.615 35.5955H145.119L147.172 30.7416Z" fill="#A9D300"/>
<path d="M34.3545 24.2697L25.0333 47.7303H0L6.51518 35.2434L12.7603 34.1501L9.86338 41.5348H20.2006L28.1134 25.3697L34.3545 24.2697Z" fill="url(#paint0_linear_26_178)"/>
<path d="M62.3328 24.2697L53.0116 47.7303H27.9784L38.1472 25.363L62.3328 24.2697ZM52.3985 30.7416H41.8363L37.4254 41.489H47.9876L52.3985 30.7416Z" fill="url(#paint1_linear_26_178)"/>
<path d="M90.3112 24.2697L87.5 30.4894H69.8294L66.0811 41.5133H76.389L77.571 37.8539H71.6808L73.1534 34.1501H86.3741L80.99 47.7303H55.9567L66.1242 25.363L90.3112 24.2697Z" fill="url(#paint2_linear_26_178)"/>
<path d="M118.29 24.2697L108.968 47.7303H101.606L104.239 41.6198H93.931L91.2978 47.7303H83.9351L94.3726 25.363L118.29 24.2697ZM108.433 30.7416H98.9283L96.8788 35.5955H106.383L108.433 30.7416Z" fill="url(#paint3_linear_26_178)"/>
<path d="M121.516 41.8679L119.296 47.7303H111.996L115.332 42.9571L121.516 41.8679Z" fill="url(#paint4_linear_26_178)"/>
<path d="M157.036 24.2697L147.706 47.7303H140.343L142.971 41.6238H132.663L130.026 47.7303H122.663L133.107 25.363L157.036 24.2697ZM147.172 30.7416H137.66L135.615 35.5955H145.119L147.172 30.7416Z" fill="url(#paint5_linear_26_178)"/>
<path d="M167.602 24.2697L158.441 47.7303H151.212L161.484 25.363L167.602 24.2697Z" fill="url(#paint6_linear_26_178)"/>
<path d="M65.3243 24.2914H90.2759L87.3571 30.8682L70.2233 30.8682L66.3269 41.5309L76.3915 41.5309L80.4779 46.8208L85.7798 34.1678H86.351L80.9692 47.7086L80.6404 47.7086L80.6051 47.793L80.5397 47.7086L55.9861 47.7086L65.3243 24.2914ZM27.0377 24.2914H34.322L25.0152 47.7086H0.0371856L5.44407 34.1718H12.7287L9.83184 41.5564H20.2103L27.0377 24.2914ZM37.3473 24.2914H62.3003L52.9922 47.7086H28.0159L37.3473 24.2914ZM93.3027 24.2914H118.254L108.948 47.7086H101.632L104.266 41.5981H93.9129L91.2799 47.7086H83.9644L93.3027 24.2914ZM33.5945 24.7872H27.3715L20.5443 42.0525H9.10781L12.0045 34.6677H5.77672L0.765976 47.2126H24.6819L33.5945 24.7872ZM61.5728 24.7872H37.6801L28.744 47.2126H52.6588L61.5728 24.7872ZM89.5163 24.7872H65.6572L56.7144 47.2126H80.1566L76.1507 42.0268L65.498 42.0268L69.7568 30.3723L87.0378 30.3722L89.5163 24.7872ZM117.527 24.7872H93.6355L84.6928 47.2126H90.9568L93.5901 41.1021H105.017L102.383 47.2126H108.614L117.527 24.7872Z" fill="#AEAEAE"/>
<path d="M114.063 41.5982H121.905L119.481 48H111.607L114.063 41.5982ZM131.841 24H157.428L147.882 48H139.927L142.569 41.8935H132.837L130.202 48H122.264L131.841 24ZM160.221 24H168L158.629 48H150.821L160.221 24ZM121.132 42.1375H114.438L112.387 47.4607H118.978L121.132 42.1375ZM156.641 24.5393H132.202L123.055 47.4607H129.852L132.488 41.3501H143.384L140.747 47.4607H147.522L156.641 24.5393ZM167.209 24.5393H160.581L151.601 47.4607H158.258L167.209 24.5393Z" fill="#A9D300"/>
<defs>
<linearGradient id="paint0_linear_26_178" x1="130.2" y1="30.4835" x2="130.542" y2="36.1733" gradientUnits="userSpaceOnUse">
<stop stop-color="white" stop-opacity="0.15"/>
<stop offset="1" stop-color="white" stop-opacity="0"/>
</linearGradient>
<linearGradient id="paint1_linear_26_178" x1="46.2116" y1="30.4835" x2="46.5819" y2="36.8833" gradientUnits="userSpaceOnUse">
<stop stop-color="white" stop-opacity="0.15"/>
<stop offset="1" stop-color="white" stop-opacity="0"/>
</linearGradient>
<linearGradient id="paint2_linear_26_178" x1="46.3036" y1="30.4835" x2="46.6567" y2="36.8198" gradientUnits="userSpaceOnUse">
<stop stop-color="white" stop-opacity="0.15"/>
<stop offset="1" stop-color="white" stop-opacity="0"/>
</linearGradient>
<linearGradient id="paint3_linear_26_178" x1="46.4381" y1="30.4835" x2="47.0321" y2="37.755" gradientUnits="userSpaceOnUse">
<stop stop-color="white" stop-opacity="0.15"/>
<stop offset="1" stop-color="white" stop-opacity="0"/>
</linearGradient>
<linearGradient id="paint4_linear_26_178" x1="43.2446" y1="31.5136" x2="45.2733" y2="42.7962" gradientUnits="userSpaceOnUse">
<stop stop-color="white" stop-opacity="0.35"/>
<stop offset="1" stop-color="white" stop-opacity="0"/>
</linearGradient>
<linearGradient id="paint5_linear_26_178" x1="46.1801" y1="30.4895" x2="46.8411" y2="38.0219" gradientUnits="userSpaceOnUse">
<stop stop-color="white" stop-opacity="0.35"/>
<stop offset="1" stop-color="white" stop-opacity="0"/>
</linearGradient>
<linearGradient id="paint6_linear_26_178" x1="90.3579" y1="24" x2="90.6654" y2="29.3307" gradientUnits="userSpaceOnUse">
<stop stop-color="white" stop-opacity="0.35"/>
<stop offset="1" stop-color="white" stop-opacity="0"/>
</linearGradient>
</defs>
</svg>
