<svg width="24" height="25" viewBox="0 0 24 25" fill="none" xmlns="http://www.w3.org/2000/svg">
<path d="M24 12.9292C24 19.5562 18.627 24.9292 12 24.9292C6.21804 24.9292 1.39204 20.8382 0.256041 15.3922L5.02004 17.3952C5.30504 18.8362 6.58004 19.9422 8.13504 19.9292C9.85804 19.9122 11.24 18.5152 11.251 16.8002L11.258 16.7972L14.86 14.1132C17.164 14.1372 19 12.2802 19 10.0222C19 7.7622 17.166 5.9292 14.907 5.9292C12.673 5.9292 10.859 7.7202 10.817 9.9442L8.17704 13.6372C7.50904 13.6232 6.90804 13.8062 6.38604 14.1472L0.092041 11.5012C0.800041 5.5482 5.85704 0.929199 12 0.929199C18.627 0.929199 24 6.3022 24 12.9292ZM7.42304 18.4062L5.87904 17.7572C6.25904 18.6152 7.11504 19.2182 8.12804 19.2142C9.47404 19.2022 10.55 18.1042 10.538 16.7592C10.526 15.4302 9.43404 14.3492 8.10604 14.3492C7.81904 14.3502 7.53604 14.3992 7.24604 14.5092L8.78804 15.1572C9.68604 15.5352 10.107 16.5682 9.72904 17.4652C9.35304 18.3612 8.32004 18.7832 7.42304 18.4062ZM14.907 12.8042C13.374 12.8042 12.126 11.5552 12.126 10.0222C12.126 8.4882 13.374 7.2402 14.907 7.2402C16.441 7.2402 17.688 8.4882 17.688 10.0222C17.688 11.5552 16.441 12.8042 14.907 12.8042ZM14.907 12.1222C16.066 12.1222 17.007 11.1802 17.007 10.0212C17.007 8.8632 16.067 7.9192 14.907 7.9192C13.747 7.9192 12.805 8.8622 12.805 10.0212C12.806 11.1802 13.748 12.1222 14.907 12.1222Z" fill="#A9D300"/>
</svg>
