<svg width="24" height="25" viewBox="0 0 24 25" fill="none" xmlns="http://www.w3.org/2000/svg">
<path d="M24 12.9646C24 19.5916 18.627 24.9646 12 24.9646C6.21804 24.9646 1.39204 20.8736 0.256041 15.4276L5.02004 17.4306C5.30504 18.8716 6.58004 19.9776 8.13504 19.9646C9.85804 19.9476 11.24 18.5506 11.251 16.8356L11.258 16.8326L14.86 14.1486C17.164 14.1726 19 12.3156 19 10.0576C19 7.7976 17.166 5.9646 14.907 5.9646C12.673 5.9646 10.859 7.7556 10.817 9.9796L8.17704 13.6726C7.50904 13.6586 6.90804 13.8416 6.38604 14.1826L0.092041 11.5366C0.800041 5.5836 5.85704 0.9646 12 0.9646C18.627 0.9646 24 6.3376 24 12.9646ZM7.42304 18.4416L5.87904 17.7926C6.25904 18.6506 7.11504 19.2536 8.12804 19.2496C9.47404 19.2376 10.55 18.1396 10.538 16.7946C10.526 15.4656 9.43404 14.3846 8.10604 14.3846C7.81904 14.3856 7.53604 14.4346 7.24604 14.5446L8.78804 15.1926C9.68604 15.5706 10.107 16.6036 9.72904 17.5006C9.35304 18.3966 8.32004 18.8186 7.42304 18.4416ZM14.907 12.8396C13.374 12.8396 12.126 11.5906 12.126 10.0576C12.126 8.5236 13.374 7.2756 14.907 7.2756C16.441 7.2756 17.688 8.5236 17.688 10.0576C17.688 11.5906 16.441 12.8396 14.907 12.8396ZM14.907 12.1576C16.066 12.1576 17.007 11.2156 17.007 10.0566C17.007 8.8986 16.067 7.9546 14.907 7.9546C13.747 7.9546 12.805 8.8976 12.805 10.0566C12.806 11.2156 13.748 12.1576 14.907 12.1576Z" fill="#A9D300"/>
</svg>
