<svg width="265" height="81" viewBox="0 0 265 81" fill="none" xmlns="http://www.w3.org/2000/svg">
<path d="M39.8091 0.929199C18.8245 0.929199 1.63358 17.1312 0 37.7214L21.4108 46.5856C23.225 45.3432 25.4166 44.6153 27.7744 44.6153C27.9858 44.6153 28.1962 44.6225 28.4048 44.6343L37.9263 30.8149C37.9263 30.7489 37.9254 30.6847 37.9254 30.6196C37.9254 22.3016 44.6828 15.5343 52.9906 15.5343C61.2976 15.5343 68.0549 22.3016 68.0549 30.6196C68.0549 38.9376 61.2976 45.7058 52.9906 45.7058C52.8759 45.7058 52.7621 45.7031 52.6484 45.7004L39.0686 55.4028C39.0758 55.5791 39.0822 55.759 39.0822 55.9381C39.0822 62.1827 34.0099 67.2608 27.7744 67.2608C22.3012 67.2608 17.7246 63.3491 16.688 58.1688L1.37622 51.8302C6.11711 68.6199 21.5219 80.9292 39.8091 80.9292C61.8719 80.9292 79.7564 63.02 79.7564 40.9306C79.7564 18.8375 61.871 0.929199 39.8091 0.929199Z" fill="white"/>
<path d="M25.0329 61.623L20.1258 59.593C20.9954 61.406 22.4999 62.9242 24.4974 63.7579C28.8156 65.5591 33.794 63.5074 35.5938 59.1798C36.4652 57.0874 36.4706 54.7771 35.6064 52.6793C34.744 50.5805 33.1168 48.9439 31.0244 48.0704C28.9484 47.205 26.7242 47.2367 24.7701 47.9754L29.8388 50.0742C33.0237 51.4034 34.53 55.0655 33.2025 58.2547C31.8778 61.4449 28.2178 62.9531 25.0329 61.623Z" fill="white"/>
<path d="M63.0278 30.6195C63.0278 25.0775 58.5253 20.5681 52.9897 20.5681C47.455 20.5681 42.9516 25.0775 42.9516 30.6195C42.9516 36.1625 47.455 40.6701 52.9897 40.6701C58.5253 40.6692 63.0278 36.1616 63.0278 30.6195ZM45.4657 30.6024C45.4657 26.4321 48.8421 23.052 53.0069 23.052C57.1716 23.052 60.548 26.4321 60.548 30.6024C60.548 34.7727 57.1716 38.1527 53.0069 38.1527C48.8421 38.1527 45.4657 34.7718 45.4657 30.6024Z" fill="white"/>
<path d="M122.418 28.2976L119.742 33.0086C117.68 31.5664 114.886 30.6983 112.447 30.6983C109.659 30.6983 107.934 31.8539 107.934 33.9237C107.934 36.4384 110.998 37.0234 115.552 38.6601C120.448 40.3935 123.262 42.4307 123.262 46.9202C123.262 53.0627 118.438 56.5123 111.504 56.5123C108.125 56.5123 104.049 55.6388 100.915 53.73L102.868 48.5072C105.413 49.8536 108.458 50.652 111.173 50.652C114.832 50.652 116.571 49.3002 116.571 47.3018C116.571 45.015 113.919 44.3278 109.638 42.9082C104.759 41.2769 101.378 39.1366 101.378 34.1679C101.378 28.5643 105.859 25.3462 112.308 25.3462C116.802 25.3462 120.414 26.7722 122.418 28.2976Z" fill="white"/>
<path d="M143.341 31.2753V55.996H137.039V31.2753H127.891V25.8625H152.462V31.2753H143.341Z" fill="white"/>
<path d="M165.747 31.259V38.0489H177.808V43.4616H165.747V50.5336H179.741V55.996H159.447V25.8625H179.741V31.259H165.747Z" fill="white"/>
<path d="M193.807 50.1455L191.815 55.9968H185.208L196.492 25.8633H202.836L214.438 55.9959H207.608L205.573 50.1446L193.807 50.1455ZM199.628 33.051L195.518 45.1162H203.823L199.628 33.051Z" fill="white"/>
<path d="M246.781 37.5099L238.546 55.118H234.99L226.888 37.6673V55.996H220.853V25.8625H226.874L236.988 47.6147L246.743 25.8625H252.816V55.996H246.782L246.781 37.5099Z" fill="white"/>
<path d="M265 29.6639C265 32.2537 263.062 33.8677 260.838 33.8677C258.606 33.8677 256.663 32.2537 256.663 29.6639C256.663 27.0751 258.606 25.4719 260.838 25.4719C263.063 25.4719 265 27.0751 265 29.6639ZM257.363 29.6639C257.363 31.8305 258.922 33.1913 260.838 33.1913C262.747 33.1913 264.299 31.8305 264.299 29.6639C264.299 27.4911 262.747 26.151 260.838 26.151C258.927 26.151 257.363 27.5073 257.363 29.6639ZM260.896 27.5218C261.975 27.5218 262.338 28.0933 262.338 28.7109C262.338 29.2769 262.003 29.6567 261.595 29.8502L262.562 31.665H261.77L260.954 30.0564H260.114V31.665H259.454V27.5218H260.896ZM260.12 29.4496H260.855C261.331 29.4496 261.612 29.1503 261.612 28.7742C261.612 28.3944 261.41 28.1503 260.853 28.1503H260.119L260.12 29.4496Z" fill="white"/>
</svg>
