<svg width="24" height="21" viewBox="0 0 24 21" fill="none" xmlns="http://www.w3.org/2000/svg">
<path d="M24 3.2736C23.117 3.6656 22.168 3.9296 21.172 4.0486C22.189 3.4396 22.97 2.4746 23.337 1.3246C22.386 1.8886 21.332 2.2986 20.21 2.5196C19.313 1.5626 18.032 0.9646 16.616 0.9646C13.437 0.9646 11.101 3.9306 11.819 7.0096C7.728 6.8046 4.1 4.8446 1.671 1.8656C0.381 4.0786 1.002 6.9736 3.194 8.4396C2.388 8.4136 1.628 8.1926 0.965 7.8236C0.911 10.1046 2.546 12.2386 4.914 12.7136C4.221 12.9016 3.462 12.9456 2.69 12.7976C3.316 14.7536 5.134 16.1766 7.29 16.2166C5.22 17.8396 2.612 18.5646 0 18.2566C2.179 19.6536 4.768 20.4686 7.548 20.4686C16.69 20.4686 21.855 12.7476 21.543 5.8226C22.505 5.1276 23.34 4.2606 24 3.2736Z" fill="#A9D300"/>
</svg>
