<svg width="225" height="32" viewBox="0 0 225 32" fill="none" xmlns="http://www.w3.org/2000/svg">
<path fill-rule="evenodd" clip-rule="evenodd" d="M57.4907 7.41136L57.4209 7.59074H74.2008L72.1648 9.74328H56.5997L51.3469 23.3545H45.0851L53.7837 7.41136H57.4907Z" fill="#222222"/>
<path fill-rule="evenodd" clip-rule="evenodd" d="M133.706 7.41136L133.636 7.59074H146.838L148.38 9.74328H132.815L127.562 23.3545H121.3L129.999 7.41136H133.706Z" fill="#222222"/>
<path fill-rule="evenodd" clip-rule="evenodd" d="M185.59 7.41136L185.52 7.59074H202.3L200.264 9.74328H184.699L179.446 23.3545H173.184L181.883 7.41136H185.59Z" fill="#ABD407"/>
<path d="M45.9135 0.394081L33.456 31.6059H0L7.25656 13.5389H17.0536L13.182 23.3635H26.9974L36.1218 0.40305L45.9135 0.394081ZM83.3055 0.394081L70.848 31.6059H37.392L49.8942 0.394081H83.3055ZM120.698 0.394081L116.94 8.66881H93.3244L88.3149 23.3348H102.091L103.671 18.4664H95.7987L97.7667 13.5389H115.436L108.24 31.6059H74.784L87.2844 0.394081H120.698ZM158.09 0.394081L145.632 31.6059H135.792L139.311 23.4765H125.535L122.016 31.6059H112.176L124.675 0.394081H158.09ZM70.0286 9.00424H55.9127L50.0176 23.3025H64.1336L70.0286 9.00424ZM144.916 9.00424H132.214L129.475 15.4619H142.177L144.916 9.00424Z" fill="white"/>
<path d="M162.401 23.8065L159.435 31.6059H149.679L152.686 23.8012L162.401 23.8065ZM209.873 0.394081L197.403 31.6059H187.563L191.075 23.4819H177.299L173.774 31.6059H163.934L176.442 0.394081H209.873ZM223.994 0.394081L211.75 31.6059H202.089L214.367 0.394081H223.994ZM196.689 9.00424H183.978L181.244 15.4619H193.947L196.689 9.00424Z" fill="#A9D300"/>
<path d="M45.9135 0.394081L33.456 31.6059H0L8.7073 14.9935L17.0536 13.5389L13.182 23.3635H26.9974L37.5725 1.8576L45.9135 0.394081Z" fill="url(#paint0_linear_13_3775)"/>
<path d="M83.3055 0.394081L70.848 31.6059H37.392L50.9823 1.84863L83.3055 0.394081ZM70.0286 9.00424H55.9127L50.0176 23.3025H64.1336L70.0286 9.00424Z" fill="url(#paint1_linear_13_3775)"/>
<path d="M120.698 0.394081L116.94 8.66881H93.3244L88.3149 23.3348H102.091L103.671 18.4664H95.7987L97.7667 13.5389H115.436L108.24 31.6059H74.784L88.3725 1.84863L120.698 0.394081Z" fill="url(#paint2_linear_13_3775)"/>
<path d="M158.09 0.394081L145.632 31.6059H135.792L139.311 23.4765H125.535L122.016 31.6059H112.176L126.125 1.84863L158.09 0.394081ZM144.916 9.00424H132.214L129.475 15.4619H142.177L144.916 9.00424Z" fill="url(#paint3_linear_13_3775)"/>
<path d="M162.401 23.8065L159.435 31.6059H149.679L154.137 25.2557L162.401 23.8065Z" fill="url(#paint4_linear_13_3775)"/>
<path d="M209.873 0.394081L197.403 31.6059H187.563L191.075 23.4819H177.299L173.774 31.6059H163.934L177.893 1.84863L209.873 0.394081ZM196.689 9.00424H183.978L181.244 15.4619H193.947L196.689 9.00424Z" fill="url(#paint5_linear_13_3775)"/>
<path d="M223.994 0.394081L211.75 31.6059H202.089L215.818 1.84863L223.994 0.394081Z" fill="url(#paint6_linear_13_3775)"/>
<path d="M87.3035 0.422941H120.65L116.749 9.1727L93.8508 9.17264L88.6433 23.3582L102.094 23.3583L107.556 30.3959L114.641 13.5624H115.405L108.212 31.5771L107.773 31.5769L107.726 31.6893L107.638 31.5769L74.8233 31.5771L87.3035 0.422941ZM36.1348 0.422941H45.87L33.4318 31.5771H0.0496971L7.27579 13.5678H17.0114L13.1399 23.3922H27.0103L36.1348 0.422941ZM49.9132 0.422941H83.2621L70.822 31.5771H37.4421L49.9132 0.422941ZM124.696 0.422941H158.042L145.604 31.5771H135.827L139.348 23.4476H125.511L121.992 31.5771H112.215L124.696 0.422941ZM44.8978 1.08258H36.5809L27.4567 24.0521H12.1722L16.0436 14.2275H7.72036L1.0237 30.9171H32.9864L44.8978 1.08258ZM82.2897 1.08258H50.3581L38.4153 30.9171H70.3765L82.2897 1.08258ZM119.635 1.08258H87.7484L75.7967 30.9171H107.126L101.773 24.018L87.5356 24.0181L93.2274 8.5129L116.323 8.51285L119.635 1.08258ZM157.07 1.08258H125.14L113.189 30.9171H121.56L125.08 22.7878H140.351L136.83 30.9171H145.159L157.07 1.08258Z" fill="#AEAEAE"/>
<path d="M152.441 23.4478H162.922L159.682 31.9647H149.158L152.441 23.4478ZM176.2 0.0353241H210.397L197.639 31.9647H187.007L190.538 23.8406H177.532L174.011 31.9647H163.401L176.2 0.0353241ZM214.129 0.0353241H224.526L212.002 31.9647H201.566L214.129 0.0353241ZM161.888 24.1653H152.942L150.201 31.2472H159.009L161.888 24.1653ZM209.345 0.752837H176.684L164.459 31.2472H173.542L177.065 23.1177H191.628L188.103 31.2472H197.158L209.345 0.752837ZM223.468 0.752837H214.611L202.609 31.2472H211.506L223.468 0.752837Z" fill="#A9D300"/>
<defs>
<linearGradient id="paint0_linear_13_3775" x1="174.007" y1="8.66088" x2="174.46" y2="16.2308" gradientUnits="userSpaceOnUse">
<stop stop-color="white" stop-opacity="0.15"/>
<stop offset="1" stop-color="white" stop-opacity="0"/>
</linearGradient>
<linearGradient id="paint1_linear_13_3775" x1="61.7601" y1="8.66088" x2="62.2505" y2="17.1753" gradientUnits="userSpaceOnUse">
<stop stop-color="white" stop-opacity="0.15"/>
<stop offset="1" stop-color="white" stop-opacity="0"/>
</linearGradient>
<linearGradient id="paint2_linear_13_3775" x1="61.8829" y1="8.66088" x2="62.3506" y2="17.0909" gradientUnits="userSpaceOnUse">
<stop stop-color="white" stop-opacity="0.15"/>
<stop offset="1" stop-color="white" stop-opacity="0"/>
</linearGradient>
<linearGradient id="paint3_linear_13_3775" x1="62.0628" y1="8.66088" x2="62.8495" y2="18.3354" gradientUnits="userSpaceOnUse">
<stop stop-color="white" stop-opacity="0.15"/>
<stop offset="1" stop-color="white" stop-opacity="0"/>
</linearGradient>
<linearGradient id="paint4_linear_13_3775" x1="57.7948" y1="10.0313" x2="60.4823" y2="25.0458" gradientUnits="userSpaceOnUse">
<stop stop-color="white" stop-opacity="0.35"/>
<stop offset="1" stop-color="white" stop-opacity="0"/>
</linearGradient>
<linearGradient id="paint5_linear_13_3775" x1="61.7179" y1="8.66888" x2="62.5935" y2="18.6906" gradientUnits="userSpaceOnUse">
<stop stop-color="white" stop-opacity="0.35"/>
<stop offset="1" stop-color="white" stop-opacity="0"/>
</linearGradient>
<linearGradient id="paint6_linear_13_3775" x1="120.76" y1="0.0353239" x2="121.167" y2="7.1274" gradientUnits="userSpaceOnUse">
<stop stop-color="white" stop-opacity="0.35"/>
<stop offset="1" stop-color="white" stop-opacity="0"/>
</linearGradient>
</defs>
</svg>
