<svg width="24" height="25" viewBox="0 0 24 25" fill="none" xmlns="http://www.w3.org/2000/svg">
<path d="M22.675 0.929199H1.325C0.593 0.929199 0 1.5222 0 2.2542V23.6052C0 24.3362 0.593 24.9292 1.325 24.9292H12.82V15.6352H9.692V12.0132H12.82V9.3422C12.82 6.2422 14.713 4.5542 17.479 4.5542C18.804 4.5542 19.942 4.6532 20.274 4.6972V7.9372L18.356 7.9382C16.852 7.9382 16.561 8.6532 16.561 9.7012V12.0142H20.148L19.681 15.6362H16.561V24.9292H22.677C23.407 24.9292 24 24.3362 24 23.6042V2.2542C24 1.5222 23.407 0.929199 22.675 0.929199Z" fill="#A9D300"/>
</svg>
