<svg width="24" height="25" viewBox="0 0 24 25" fill="none" xmlns="http://www.w3.org/2000/svg">
<path d="M22.675 0.929321H1.325C0.593 0.929321 0 1.52232 0 2.25432V23.6053C0 24.3363 0.593 24.9293 1.325 24.9293H12.82V15.6353H9.692V12.0133H12.82V9.34232C12.82 6.24232 14.713 4.55432 17.479 4.55432C18.804 4.55432 19.942 4.65332 20.274 4.69732V7.93732L18.356 7.93832C16.852 7.93832 16.561 8.65332 16.561 9.70132V12.0143H20.148L19.681 15.6363H16.561V24.9293H22.677C23.407 24.9293 24 24.3363 24 23.6043V2.25432C24 1.52232 23.407 0.929321 22.675 0.929321Z" fill="#A9D300"/>
</svg>
