<svg width="24" height="25" viewBox="0 0 24 25" fill="none" xmlns="http://www.w3.org/2000/svg">
<path d="M12 3.0922C15.204 3.0922 15.584 3.1042 16.85 3.1622C20.102 3.3102 21.621 4.8532 21.769 8.0812C21.827 9.3462 21.838 9.7262 21.838 12.9302C21.838 16.1352 21.826 16.5142 21.769 17.7792C21.62 21.0042 20.105 22.5502 16.85 22.6982C15.584 22.7562 15.206 22.7682 12 22.7682C8.796 22.7682 8.416 22.7562 7.151 22.6982C3.891 22.5492 2.38 20.9992 2.232 17.7782C2.174 16.5132 2.162 16.1342 2.162 12.9292C2.162 9.7252 2.175 9.3462 2.232 8.0802C2.381 4.8532 3.896 3.3092 7.151 3.1612C8.417 3.1042 8.796 3.0922 12 3.0922ZM12 0.929199C8.741 0.929199 8.333 0.943199 7.053 1.0012C2.695 1.2012 0.273 3.6192 0.073 7.9812C0.014 9.2622 0 9.6702 0 12.9292C0 16.1882 0.014 16.5972 0.072 17.8772C0.272 22.2352 2.69 24.6572 7.052 24.8572C8.333 24.9152 8.741 24.9292 12 24.9292C15.259 24.9292 15.668 24.9152 16.948 24.8572C21.302 24.6572 23.73 22.2392 23.927 17.8772C23.986 16.5972 24 16.1882 24 12.9292C24 9.6702 23.986 9.2622 23.928 7.9822C23.732 3.6282 21.311 1.2022 16.949 1.0022C15.668 0.943199 15.259 0.929199 12 0.929199ZM12 6.7672C8.597 6.7672 5.838 9.5262 5.838 12.9292C5.838 16.3322 8.597 19.0922 12 19.0922C15.403 19.0922 18.162 16.3332 18.162 12.9292C18.162 9.5262 15.403 6.7672 12 6.7672ZM12 16.9292C9.791 16.9292 8 15.1392 8 12.9292C8 10.7202 9.791 8.9292 12 8.9292C14.209 8.9292 16 10.7202 16 12.9292C16 15.1392 14.209 16.9292 12 16.9292ZM18.406 5.0842C17.61 5.0842 16.965 5.7292 16.965 6.5242C16.965 7.3192 17.61 7.9642 18.406 7.9642C19.201 7.9642 19.845 7.3192 19.845 6.5242C19.845 5.7292 19.201 5.0842 18.406 5.0842Z" fill="#A9D300"/>
</svg>
