<svg width="24" height="25" viewBox="0 0 24 25" fill="none" xmlns="http://www.w3.org/2000/svg">
<path d="M12 3.09232C15.204 3.09232 15.584 3.10432 16.85 3.16232C20.102 3.31032 21.621 4.85332 21.769 8.08132C21.827 9.34632 21.838 9.72632 21.838 12.9303C21.838 16.1353 21.826 16.5143 21.769 17.7793C21.62 21.0043 20.105 22.5503 16.85 22.6983C15.584 22.7563 15.206 22.7683 12 22.7683C8.796 22.7683 8.416 22.7563 7.151 22.6983C3.891 22.5493 2.38 20.9993 2.232 17.7783C2.174 16.5133 2.162 16.1343 2.162 12.9293C2.162 9.72532 2.175 9.34632 2.232 8.08032C2.381 4.85332 3.896 3.30932 7.151 3.16132C8.417 3.10432 8.796 3.09232 12 3.09232ZM12 0.929321C8.741 0.929321 8.333 0.943321 7.053 1.00132C2.695 1.20132 0.273 3.61932 0.073 7.98132C0.014 9.26232 0 9.67032 0 12.9293C0 16.1883 0.014 16.5973 0.072 17.8773C0.272 22.2353 2.69 24.6573 7.052 24.8573C8.333 24.9153 8.741 24.9293 12 24.9293C15.259 24.9293 15.668 24.9153 16.948 24.8573C21.302 24.6573 23.73 22.2393 23.927 17.8773C23.986 16.5973 24 16.1883 24 12.9293C24 9.67032 23.986 9.26232 23.928 7.98232C23.732 3.62832 21.311 1.20232 16.949 1.00232C15.668 0.943321 15.259 0.929321 12 0.929321ZM12 6.76732C8.597 6.76732 5.838 9.52632 5.838 12.9293C5.838 16.3323 8.597 19.0923 12 19.0923C15.403 19.0923 18.162 16.3333 18.162 12.9293C18.162 9.52632 15.403 6.76732 12 6.76732ZM12 16.9293C9.791 16.9293 8 15.1393 8 12.9293C8 10.7203 9.791 8.92932 12 8.92932C14.209 8.92932 16 10.7203 16 12.9293C16 15.1393 14.209 16.9293 12 16.9293ZM18.406 5.08432C17.61 5.08432 16.965 5.72932 16.965 6.52432C16.965 7.31932 17.61 7.96432 18.406 7.96432C19.201 7.96432 19.845 7.31932 19.845 6.52432C19.845 5.72932 19.201 5.08432 18.406 5.08432Z" fill="#A9D300"/>
</svg>
