<svg width="192" height="73" viewBox="0 0 192 73" fill="none" xmlns="http://www.w3.org/2000/svg">
<path fill-rule="evenodd" clip-rule="evenodd" d="M43.0171 30.4736L42.9649 30.6084H55.5203L53.9969 32.2264H42.3504L38.42 42.4574H33.7347L40.2433 30.4736H43.0171Z" fill="#222222"/>
<path fill-rule="evenodd" clip-rule="evenodd" d="M100.045 30.4736L99.9925 30.6084H109.871L111.025 32.2264H99.3781L95.4477 42.4574H90.7623L97.271 30.4736H100.045Z" fill="#222222"/>
<path fill-rule="evenodd" clip-rule="evenodd" d="M138.866 30.4736L138.814 30.6084H151.37L149.846 32.2264H138.2L134.269 42.4574H129.584L136.093 30.4736H138.866Z" fill="#ABD407"/>
<path d="M34.3545 25.199L25.0333 48.6597H0L5.42968 35.0794H12.7603L9.86338 42.4642H20.2006L27.0279 25.2057L34.3545 25.199ZM62.3328 25.199L53.0116 48.6597H27.9784L37.333 25.199H62.3328ZM90.3112 25.199L87.5 31.4188H69.8294L66.0811 42.4426H76.389L77.571 38.7833H71.6808L73.1534 35.0794H86.3741L80.99 48.6597H55.9567L65.3101 25.199H90.3112ZM118.29 25.199L108.968 48.6597H101.606L104.239 42.5491H93.931L91.2978 48.6597H83.9351L93.2871 25.199H118.29ZM52.3985 31.6709H41.8363L37.4254 42.4183H47.9876L52.3985 31.6709ZM108.433 31.6709H98.9283L96.8788 36.5248H106.383L108.433 31.6709Z" fill="white"/>
<path d="M121.516 42.7972L119.296 48.6597H111.996L114.247 42.7931L121.516 42.7972ZM157.036 25.199L147.706 48.6597H140.343L142.971 42.5531H132.663L130.026 48.6597H122.663L132.022 25.199H157.036ZM167.602 25.199L158.441 48.6597H151.212L160.399 25.199H167.602ZM147.172 31.6709H137.66L135.615 36.5248H145.119L147.172 31.6709Z" fill="#A9D300"/>
<path d="M34.3545 25.199L25.0333 48.6597H0L6.51518 36.1728L12.7603 35.0794L9.86338 42.4642H20.2006L28.1134 26.299L34.3545 25.199Z" fill="url(#paint0_linear_53_8420)"/>
<path d="M62.3328 25.199L53.0116 48.6597H27.9784L38.1472 26.2923L62.3328 25.199ZM52.3985 31.6709H41.8363L37.4254 42.4183H47.9876L52.3985 31.6709Z" fill="url(#paint1_linear_53_8420)"/>
<path d="M90.3112 25.199L87.5 31.4188H69.8294L66.0811 42.4426H76.389L77.571 38.7833H71.6808L73.1534 35.0794H86.3741L80.99 48.6597H55.9567L66.1242 26.2923L90.3112 25.199Z" fill="url(#paint2_linear_53_8420)"/>
<path d="M118.29 25.199L108.968 48.6597H101.606L104.239 42.5491H93.931L91.2978 48.6597H83.9351L94.3726 26.2923L118.29 25.199ZM108.433 31.6709H98.9283L96.8788 36.5248H106.383L108.433 31.6709Z" fill="url(#paint3_linear_53_8420)"/>
<path d="M121.516 42.7972L119.296 48.6597H111.996L115.332 43.8865L121.516 42.7972Z" fill="url(#paint4_linear_53_8420)"/>
<path d="M157.036 25.199L147.706 48.6597H140.343L142.971 42.5531H132.663L130.026 48.6597H122.663L133.107 26.2923L157.036 25.199ZM147.172 31.6709H137.66L135.615 36.5248H145.119L147.172 31.6709Z" fill="url(#paint5_linear_53_8420)"/>
<path d="M167.602 25.199L158.441 48.6597H151.212L161.484 26.2923L167.602 25.199Z" fill="url(#paint6_linear_53_8420)"/>
<path d="M65.3243 25.2207H90.2759L87.3571 31.7975L70.2233 31.7975L66.3269 42.4602L76.3915 42.4602L80.4779 47.7501L85.7798 35.0971H86.351L80.9692 48.638L80.6404 48.6379L80.6051 48.7224L80.5397 48.6379L55.9861 48.638L65.3243 25.2207ZM27.0377 25.2207H34.322L25.0152 48.638H0.0371856L5.44407 35.1011H12.7287L9.83184 42.4857H20.2103L27.0377 25.2207ZM37.3473 25.2207H62.3003L52.9922 48.638H28.0159L37.3473 25.2207ZM93.3027 25.2207H118.254L108.948 48.638H101.632L104.266 42.5274H93.9129L91.2799 48.638H83.9644L93.3027 25.2207ZM33.5945 25.7165H27.3715L20.5443 42.9818H9.10781L12.0045 35.597H5.77672L0.765976 48.1419H24.6819L33.5945 25.7165ZM61.5728 25.7165H37.6801L28.744 48.1419H52.6588L61.5728 25.7165ZM89.5163 25.7165H65.6572L56.7144 48.1419H80.1566L76.1508 42.9561L65.498 42.9562L69.7568 31.3016L87.0378 31.3015L89.5163 25.7165ZM117.527 25.7165H93.6355L84.6928 48.1419H90.9568L93.5901 42.0315H105.017L102.383 48.1419H108.614L117.527 25.7165Z" fill="#AEAEAE"/>
<path d="M114.063 42.5275H121.905L119.481 48.9293H111.607L114.063 42.5275ZM131.841 24.9293H157.428L147.882 48.9293H139.927L142.569 42.8228H132.837L130.202 48.9293H122.264L131.841 24.9293ZM160.221 24.9293H168L158.629 48.9293H150.821L160.221 24.9293ZM121.132 43.0668H114.438L112.387 48.39H118.978L121.132 43.0668ZM156.641 25.4686H132.202L123.055 48.39H129.852L132.488 42.2794H143.384L140.747 48.39H147.522L156.641 25.4686ZM167.209 25.4686H160.581L151.601 48.39H158.258L167.209 25.4686Z" fill="#A9D300"/>
<defs>
<linearGradient id="paint0_linear_53_8420" x1="130.2" y1="31.4128" x2="130.542" y2="37.1027" gradientUnits="userSpaceOnUse">
<stop stop-color="white" stop-opacity="0.15"/>
<stop offset="1" stop-color="white" stop-opacity="0"/>
</linearGradient>
<linearGradient id="paint1_linear_53_8420" x1="46.2116" y1="31.4128" x2="46.5819" y2="37.8126" gradientUnits="userSpaceOnUse">
<stop stop-color="white" stop-opacity="0.15"/>
<stop offset="1" stop-color="white" stop-opacity="0"/>
</linearGradient>
<linearGradient id="paint2_linear_53_8420" x1="46.3036" y1="31.4128" x2="46.6567" y2="37.7491" gradientUnits="userSpaceOnUse">
<stop stop-color="white" stop-opacity="0.15"/>
<stop offset="1" stop-color="white" stop-opacity="0"/>
</linearGradient>
<linearGradient id="paint3_linear_53_8420" x1="46.4381" y1="31.4128" x2="47.0321" y2="38.6843" gradientUnits="userSpaceOnUse">
<stop stop-color="white" stop-opacity="0.15"/>
<stop offset="1" stop-color="white" stop-opacity="0"/>
</linearGradient>
<linearGradient id="paint4_linear_53_8420" x1="43.2446" y1="32.4429" x2="45.2733" y2="43.7255" gradientUnits="userSpaceOnUse">
<stop stop-color="white" stop-opacity="0.35"/>
<stop offset="1" stop-color="white" stop-opacity="0"/>
</linearGradient>
<linearGradient id="paint5_linear_53_8420" x1="46.1801" y1="31.4188" x2="46.8411" y2="38.9512" gradientUnits="userSpaceOnUse">
<stop stop-color="white" stop-opacity="0.35"/>
<stop offset="1" stop-color="white" stop-opacity="0"/>
</linearGradient>
<linearGradient id="paint6_linear_53_8420" x1="90.3579" y1="24.9293" x2="90.6654" y2="30.26" gradientUnits="userSpaceOnUse">
<stop stop-color="white" stop-opacity="0.35"/>
<stop offset="1" stop-color="white" stop-opacity="0"/>
</linearGradient>
</defs>
</svg>
