<svg width="224" height="32" viewBox="0 0 224 32" fill="none" xmlns="http://www.w3.org/2000/svg">
<path fill-rule="evenodd" clip-rule="evenodd" d="M57.3561 7.39236L57.2865 7.57213H74.0271L71.9959 9.72944H56.4672L51.2267 23.3708H44.9796L53.6578 7.39236H57.3561Z" fill="#222222"/>
<path fill-rule="evenodd" clip-rule="evenodd" d="M133.393 7.39236L133.323 7.57213H146.494L148.033 9.72944H132.504L127.264 23.3708H121.016L129.695 7.39236H133.393Z" fill="#222222"/>
<path fill-rule="evenodd" clip-rule="evenodd" d="M185.155 7.39236L185.086 7.57213H201.826L199.795 9.72944H184.266L179.026 23.3708H172.779L181.457 7.39236H185.155Z" fill="#ABD407"/>
<path d="M45.806 0.359551L33.3777 31.6404H0L7.23957 13.5335H17.0137L13.1512 23.3798H26.9342L36.0372 0.368539L45.806 0.359551ZM83.1105 0.359551L70.6822 31.6404H37.3045L49.7774 0.359551H83.1105ZM120.415 0.359551L116.667 8.65258H93.1059L88.1082 23.351H101.852L103.428 18.4719H95.5744L97.5378 13.5335H115.166L107.987 31.6404H74.609L87.0801 0.359551H120.415ZM157.719 0.359551L145.291 31.6404H135.474L138.985 23.493H125.241L121.73 31.6404H111.913L124.383 0.359551H157.719ZM69.8647 8.98876H55.7818L49.9005 23.3187H63.9834L69.8647 8.98876ZM144.577 8.98876H131.904L129.172 15.4607H141.844L144.577 8.98876Z" fill="white"/>
<path d="M162.021 23.8238L159.062 31.6404H149.329L152.329 23.8184L162.021 23.8238ZM209.382 0.359551L196.941 31.6404H187.124L190.628 23.4984H176.884L173.368 31.6404H163.551L176.029 0.359551H209.382ZM223.47 0.359551L211.254 31.6404H201.616L213.865 0.359551H223.47ZM196.229 8.98876H183.547L180.82 15.4607H193.492L196.229 8.98876Z" fill="#A9D300"/>
<path d="M45.806 0.359551L33.3777 31.6404H0L8.68691 14.9912L17.0137 13.5335L13.1512 23.3798H26.9342L37.4845 1.8263L45.806 0.359551Z" fill="url(#paint0_linear_83_311)"/>
<path d="M83.1105 0.359551L70.6822 31.6404H37.3045L50.8629 1.81731L83.1105 0.359551ZM69.8647 8.98876H55.7818L49.9005 23.3187H63.9834L69.8647 8.98876Z" fill="url(#paint1_linear_83_311)"/>
<path d="M120.415 0.359551L116.667 8.65258H93.1059L88.1082 23.351H101.852L103.428 18.4719H95.5744L97.5378 13.5335H115.166L107.987 31.6404H74.609L88.1656 1.81731L120.415 0.359551Z" fill="url(#paint2_linear_83_311)"/>
<path d="M157.719 0.359551L145.291 31.6404H135.474L138.985 23.493H125.241L121.73 31.6404H111.913L125.83 1.81731L157.719 0.359551ZM144.577 8.98876H131.904L129.172 15.4607H141.844L144.577 8.98876Z" fill="url(#paint3_linear_83_311)"/>
<path d="M162.021 23.8238L159.062 31.6404H149.329L153.776 25.2762L162.021 23.8238Z" fill="url(#paint4_linear_83_311)"/>
<path d="M209.382 0.359551L196.941 31.6404H187.124L190.628 23.4984H176.884L173.368 31.6404H163.551L177.476 1.81731L209.382 0.359551ZM196.229 8.98876H183.547L180.82 15.4607H193.492L196.229 8.98876Z" fill="url(#paint5_linear_83_311)"/>
<path d="M223.47 0.359551L211.254 31.6404H201.616L215.313 1.81731L223.47 0.359551Z" fill="url(#paint6_linear_83_311)"/>
<path d="M87.0991 0.388474H120.368L116.476 9.15759L93.6311 9.15754L88.4358 23.3745L101.855 23.3745L107.304 30.4278L114.373 13.557H115.135L107.959 31.6115L107.521 31.6114L107.473 31.7241L107.386 31.6114L74.6481 31.6115L87.0991 0.388474ZM36.0502 0.388474H45.7626L33.3536 31.6115H0.0495808L7.25876 13.5624H16.9716L13.1091 23.4086H26.9471L36.0502 0.388474ZM49.7964 0.388474H83.0671L70.6562 31.6115H37.3545L49.7964 0.388474ZM124.404 0.388474H157.672L145.263 31.6115H135.509L139.022 23.4641H125.217L121.707 31.6115H111.953L124.404 0.388474ZM44.7926 1.04958H36.4953L27.3924 24.07H12.1437L16.006 14.2236H7.70229L1.0213 30.9501H32.9092L44.7926 1.04958ZM82.097 1.04958H50.2402L38.3254 30.9501H70.2117L82.097 1.04958ZM119.355 1.04958H87.5429L75.6192 30.9501H106.876L101.534 24.0357L87.3306 24.0358L93.0091 8.49634L116.05 8.49628L119.355 1.04958ZM156.703 1.04958H124.847L112.924 30.9501H121.276L124.787 22.8029H140.023L136.51 30.9501H144.819L156.703 1.04958Z" fill="#AEAEAE"/>
<path d="M152.084 23.4643H162.54L159.308 32H148.809L152.084 23.4643ZM175.788 0H209.905L197.176 32H186.569L190.092 23.858H177.116L173.603 32H163.019L175.788 0ZM213.628 0H224L211.506 32H201.094L213.628 0ZM161.509 24.1834H152.584L149.85 31.2809H158.637L161.509 24.1834ZM208.855 0.719101H176.27L164.074 31.2809H173.136L176.65 23.1335H191.179L187.663 31.2809H196.696L208.855 0.719101ZM222.945 0.719101H214.108L202.135 31.2809H211.011L222.945 0.719101Z" fill="#A9D300"/>
<defs>
<linearGradient id="paint0_linear_83_311" x1="173.6" y1="8.64464" x2="174.056" y2="16.2311" gradientUnits="userSpaceOnUse">
<stop stop-color="white" stop-opacity="0.15"/>
<stop offset="1" stop-color="white" stop-opacity="0"/>
</linearGradient>
<linearGradient id="paint1_linear_83_311" x1="61.6155" y1="8.64465" x2="62.1092" y2="17.1777" gradientUnits="userSpaceOnUse">
<stop stop-color="white" stop-opacity="0.15"/>
<stop offset="1" stop-color="white" stop-opacity="0"/>
</linearGradient>
<linearGradient id="paint2_linear_83_311" x1="61.7381" y1="8.64464" x2="62.2089" y2="17.0931" gradientUnits="userSpaceOnUse">
<stop stop-color="white" stop-opacity="0.15"/>
<stop offset="1" stop-color="white" stop-opacity="0"/>
</linearGradient>
<linearGradient id="paint3_linear_83_311" x1="61.9175" y1="8.64464" x2="62.7095" y2="18.34" gradientUnits="userSpaceOnUse">
<stop stop-color="white" stop-opacity="0.15"/>
<stop offset="1" stop-color="white" stop-opacity="0"/>
</linearGradient>
<linearGradient id="paint4_linear_83_311" x1="57.6595" y1="10.0181" x2="60.3644" y2="25.0616" gradientUnits="userSpaceOnUse">
<stop stop-color="white" stop-opacity="0.35"/>
<stop offset="1" stop-color="white" stop-opacity="0"/>
</linearGradient>
<linearGradient id="paint5_linear_83_311" x1="61.5734" y1="8.65266" x2="62.4549" y2="18.6958" gradientUnits="userSpaceOnUse">
<stop stop-color="white" stop-opacity="0.35"/>
<stop offset="1" stop-color="white" stop-opacity="0"/>
</linearGradient>
<linearGradient id="paint6_linear_83_311" x1="120.477" y1="-1.83059e-07" x2="120.887" y2="7.10755" gradientUnits="userSpaceOnUse">
<stop stop-color="white" stop-opacity="0.35"/>
<stop offset="1" stop-color="white" stop-opacity="0"/>
</linearGradient>
</defs>
</svg>
