<svg width="168" height="24" viewBox="0 0 168 24" fill="none" xmlns="http://www.w3.org/2000/svg">
<path fill-rule="evenodd" clip-rule="evenodd" d="M43.0171 5.54427L42.9649 5.6791H55.5203L53.9969 7.29708H42.3504L38.42 17.5281H33.7347L40.2433 5.54427H43.0171Z" fill="#222222"/>
<path fill-rule="evenodd" clip-rule="evenodd" d="M100.045 5.54427L99.9925 5.6791H109.871L111.025 7.29708H99.3781L95.4477 17.5281H90.7623L97.271 5.54427H100.045Z" fill="#222222"/>
<path fill-rule="evenodd" clip-rule="evenodd" d="M138.866 5.54427L138.814 5.6791H151.37L149.846 7.29708H138.2L134.269 17.5281H129.584L136.093 5.54427H138.866Z" fill="#ABD407"/>
<path d="M34.3545 0.269663L25.0333 23.7303H0L5.42968 10.1501H12.7603L9.86338 17.5348H20.2006L27.0279 0.276405L34.3545 0.269663ZM62.3328 0.269663L53.0116 23.7303H27.9784L37.333 0.269663H62.3328ZM90.3112 0.269663L87.5 6.48944H69.8294L66.0811 17.5133H76.389L77.571 13.8539H71.6808L73.1534 10.1501H86.3741L80.99 23.7303H55.9567L65.3101 0.269663H90.3112ZM118.29 0.269663L108.968 23.7303H101.606L104.239 17.6198H93.931L91.2978 23.7303H83.9351L93.2871 0.269663H118.29ZM52.3985 6.74157H41.8363L37.4254 17.489H47.9876L52.3985 6.74157ZM108.433 6.74157H98.9283L96.8788 11.5955H106.383L108.433 6.74157Z" fill="white"/>
<path d="M121.516 17.8679L119.296 23.7303H111.996L114.247 17.8638L121.516 17.8679ZM157.036 0.269663L147.706 23.7303H140.343L142.971 17.6238H132.663L130.026 23.7303H122.663L132.022 0.269663H157.036ZM167.602 0.269663L158.441 23.7303H151.212L160.399 0.269663H167.602ZM147.172 6.74157H137.66L135.615 11.5955H145.119L147.172 6.74157Z" fill="#A9D300"/>
<path d="M34.3545 0.269663L25.0333 23.7303H0L6.51518 11.2434L12.7603 10.1501L9.86338 17.5348H20.2006L28.1134 1.36973L34.3545 0.269663Z" fill="url(#paint0_linear_78_662)"/>
<path d="M62.3328 0.269663L53.0116 23.7303H27.9784L38.1472 1.36299L62.3328 0.269663ZM52.3985 6.74157H41.8363L37.4254 17.489H47.9876L52.3985 6.74157Z" fill="url(#paint1_linear_78_662)"/>
<path d="M90.3112 0.269663L87.5 6.48944H69.8294L66.0811 17.5133H76.389L77.571 13.8539H71.6808L73.1534 10.1501H86.3741L80.99 23.7303H55.9567L66.1242 1.36299L90.3112 0.269663Z" fill="url(#paint2_linear_78_662)"/>
<path d="M118.29 0.269663L108.968 23.7303H101.606L104.239 17.6198H93.931L91.2978 23.7303H83.9351L94.3726 1.36299L118.29 0.269663ZM108.433 6.74157H98.9283L96.8788 11.5955H106.383L108.433 6.74157Z" fill="url(#paint3_linear_78_662)"/>
<path d="M121.516 17.8679L119.296 23.7303H111.996L115.332 18.9571L121.516 17.8679Z" fill="url(#paint4_linear_78_662)"/>
<path d="M157.036 0.269663L147.706 23.7303H140.343L142.971 17.6238H132.663L130.026 23.7303H122.663L133.107 1.36299L157.036 0.269663ZM147.172 6.74157H137.66L135.615 11.5955H145.119L147.172 6.74157Z" fill="url(#paint5_linear_78_662)"/>
<path d="M167.602 0.269663L158.441 23.7303H151.212L161.484 1.36299L167.602 0.269663Z" fill="url(#paint6_linear_78_662)"/>
<path d="M65.3243 0.291356H90.2759L87.3571 6.86819L70.2233 6.86815L66.3269 17.5309L76.3915 17.5309L80.4779 22.8208L85.7798 10.1678H86.351L80.9692 23.7086L80.6404 23.7086L80.6051 23.793L80.5397 23.7086L55.9861 23.7086L65.3243 0.291356ZM27.0377 0.291356H34.322L25.0152 23.7086H0.0371856L5.44407 10.1718H12.7287L9.83184 17.5564H20.2103L27.0377 0.291356ZM37.3473 0.291356H62.3003L52.9922 23.7086H28.0159L37.3473 0.291356ZM93.3027 0.291356H118.254L108.948 23.7086H101.632L104.266 17.5981H93.9129L91.2799 23.7086H83.9644L93.3027 0.291356ZM33.5945 0.787181H27.3715L20.5443 18.0525H9.10781L12.0045 10.6677H5.77672L0.765976 23.2126H24.6819L33.5945 0.787181ZM61.5728 0.787181H37.6801L28.744 23.2126H52.6588L61.5728 0.787181ZM89.5163 0.787181H65.6572L56.7144 23.2126H80.1566L76.1507 18.0268L65.498 18.0268L69.7568 6.37225L87.0378 6.37221L89.5163 0.787181ZM117.527 0.787181H93.6355L84.6928 23.2126H90.9568L93.5901 17.1021H105.017L102.383 23.2126H108.614L117.527 0.787181Z" fill="#AEAEAE"/>
<path d="M114.063 17.5982H121.905L119.481 24H111.607L114.063 17.5982ZM131.841 0H157.428L147.882 24H139.927L142.569 17.8935H132.837L130.202 24H122.264L131.841 0ZM160.221 0H168L158.629 24H150.821L160.221 0ZM121.132 18.1375H114.438L112.387 23.4607H118.978L121.132 18.1375ZM156.641 0.539326H132.202L123.055 23.4607H129.852L132.488 17.3501H143.384L140.747 23.4607H147.522L156.641 0.539326ZM167.209 0.539326H160.581L151.601 23.4607H158.258L167.209 0.539326Z" fill="#A9D300"/>
<defs>
<linearGradient id="paint0_linear_78_662" x1="130.2" y1="6.48348" x2="130.542" y2="12.1733" gradientUnits="userSpaceOnUse">
<stop stop-color="white" stop-opacity="0.15"/>
<stop offset="1" stop-color="white" stop-opacity="0"/>
</linearGradient>
<linearGradient id="paint1_linear_78_662" x1="46.2116" y1="6.48348" x2="46.5819" y2="12.8833" gradientUnits="userSpaceOnUse">
<stop stop-color="white" stop-opacity="0.15"/>
<stop offset="1" stop-color="white" stop-opacity="0"/>
</linearGradient>
<linearGradient id="paint2_linear_78_662" x1="46.3036" y1="6.48348" x2="46.6567" y2="12.8198" gradientUnits="userSpaceOnUse">
<stop stop-color="white" stop-opacity="0.15"/>
<stop offset="1" stop-color="white" stop-opacity="0"/>
</linearGradient>
<linearGradient id="paint3_linear_78_662" x1="46.4381" y1="6.48348" x2="47.0321" y2="13.755" gradientUnits="userSpaceOnUse">
<stop stop-color="white" stop-opacity="0.15"/>
<stop offset="1" stop-color="white" stop-opacity="0"/>
</linearGradient>
<linearGradient id="paint4_linear_78_662" x1="43.2446" y1="7.51359" x2="45.2733" y2="18.7962" gradientUnits="userSpaceOnUse">
<stop stop-color="white" stop-opacity="0.35"/>
<stop offset="1" stop-color="white" stop-opacity="0"/>
</linearGradient>
<linearGradient id="paint5_linear_78_662" x1="46.1801" y1="6.4895" x2="46.8411" y2="14.0219" gradientUnits="userSpaceOnUse">
<stop stop-color="white" stop-opacity="0.35"/>
<stop offset="1" stop-color="white" stop-opacity="0"/>
</linearGradient>
<linearGradient id="paint6_linear_78_662" x1="90.3579" y1="-1.37294e-07" x2="90.6654" y2="5.33066" gradientUnits="userSpaceOnUse">
<stop stop-color="white" stop-opacity="0.35"/>
<stop offset="1" stop-color="white" stop-opacity="0"/>
</linearGradient>
</defs>
</svg>
