<svg width="24" height="24" viewBox="0 0 24 24" fill="none" xmlns="http://www.w3.org/2000/svg">
<path d="M23.954 12C23.954 18.627 18.581 24 11.954 24C6.17202 24 1.34602 19.909 0.210021 14.463L4.97402 16.466C5.25902 17.907 6.53402 19.013 8.08902 19C9.81202 18.983 11.194 17.586 11.205 15.871L11.212 15.868L14.814 13.184C17.118 13.208 18.954 11.351 18.954 9.093C18.954 6.833 17.12 5 14.861 5C12.627 5 10.813 6.791 10.771 9.015L8.13102 12.708C7.46302 12.694 6.86202 12.877 6.34002 13.218L0.0460205 10.572C0.754021 4.619 5.81102 0 11.954 0C18.581 0 23.954 5.373 23.954 12ZM7.37702 17.477L5.83302 16.828C6.21302 17.686 7.06902 18.289 8.08202 18.285C9.42802 18.273 10.504 17.175 10.492 15.83C10.48 14.501 9.38802 13.42 8.06002 13.42C7.77302 13.421 7.49002 13.47 7.20002 13.58L8.74202 14.228C9.64002 14.606 10.061 15.639 9.68302 16.536C9.30702 17.432 8.27402 17.854 7.37702 17.477ZM14.861 11.875C13.328 11.875 12.08 10.626 12.08 9.093C12.08 7.559 13.328 6.311 14.861 6.311C16.395 6.311 17.642 7.559 17.642 9.093C17.642 10.626 16.395 11.875 14.861 11.875ZM14.861 11.193C16.02 11.193 16.961 10.251 16.961 9.092C16.961 7.934 16.021 6.99 14.861 6.99C13.701 6.99 12.759 7.933 12.759 9.092C12.76 10.251 13.702 11.193 14.861 11.193Z" fill="#A9D300"/>
</svg>
