<svg width="265" height="80" viewBox="0 0 265 80" fill="none" xmlns="http://www.w3.org/2000/svg">
<path d="M39.8091 0C18.8245 0 1.63358 16.202 0 36.7922L21.4108 45.6564C23.225 44.414 25.4166 43.6861 27.7744 43.6861C27.9858 43.6861 28.1962 43.6933 28.4048 43.7051L37.9263 29.8857C37.9263 29.8197 37.9254 29.7555 37.9254 29.6904C37.9254 21.3724 44.6828 14.6051 52.9906 14.6051C61.2976 14.6051 68.0549 21.3724 68.0549 29.6904C68.0549 38.0084 61.2976 44.7766 52.9906 44.7766C52.8759 44.7766 52.7621 44.7739 52.6484 44.7712L39.0686 54.4736C39.0758 54.6499 39.0822 54.8298 39.0822 55.0089C39.0822 61.2535 34.0099 66.3316 27.7744 66.3316C22.3012 66.3316 17.7246 62.4199 16.688 57.2396L1.37622 50.901C6.11711 67.6907 21.5219 80 39.8091 80C61.8719 80 79.7564 62.0908 79.7564 40.0014C79.7564 17.9083 61.871 0 39.8091 0Z" fill="white"/>
<path d="M25.0329 60.6938L20.1258 58.6638C20.9954 60.4768 22.4999 61.995 24.4974 62.8287C28.8156 64.6299 33.794 62.5782 35.5938 58.2506C36.4652 56.1582 36.4706 53.8479 35.6064 51.7501C34.744 49.6513 33.1168 48.0147 31.0244 47.1412C28.9484 46.2758 26.7242 46.3075 24.7701 47.0462L29.8388 49.145C33.0237 50.4742 34.53 54.1363 33.2025 57.3255C31.8778 60.5157 28.2178 62.0239 25.0329 60.6938Z" fill="white"/>
<path d="M63.0278 29.6903C63.0278 24.1483 58.5253 19.6389 52.9897 19.6389C47.455 19.6389 42.9516 24.1483 42.9516 29.6903C42.9516 35.2333 47.455 39.7409 52.9897 39.7409C58.5253 39.74 63.0278 35.2324 63.0278 29.6903ZM45.4657 29.6732C45.4657 25.5029 48.8421 22.1228 53.0069 22.1228C57.1716 22.1228 60.548 25.5029 60.548 29.6732C60.548 33.8435 57.1716 37.2235 53.0069 37.2235C48.8421 37.2235 45.4657 33.8426 45.4657 29.6732Z" fill="white"/>
<path d="M122.418 27.3684L119.742 32.0794C117.68 30.6372 114.886 29.7691 112.447 29.7691C109.659 29.7691 107.934 30.9247 107.934 32.9945C107.934 35.5092 110.998 36.0942 115.552 37.7309C120.448 39.4643 123.262 41.5015 123.262 45.991C123.262 52.1335 118.438 55.5831 111.504 55.5831C108.125 55.5831 104.049 54.7096 100.915 52.8008L102.868 47.578C105.413 48.9244 108.458 49.7228 111.173 49.7228C114.832 49.7228 116.571 48.371 116.571 46.3726C116.571 44.0858 113.919 43.3986 109.638 41.979C104.759 40.3477 101.378 38.2074 101.378 33.2387C101.378 27.6351 105.859 24.417 112.308 24.417C116.802 24.417 120.414 25.843 122.418 27.3684Z" fill="white"/>
<path d="M143.341 30.3461V55.0668H137.039V30.3461H127.891V24.9333H152.462V30.3461H143.341Z" fill="white"/>
<path d="M165.747 30.3298V37.1197H177.808V42.5324H165.747V49.6044H179.741V55.0668H159.447V24.9333H179.741V30.3298H165.747Z" fill="white"/>
<path d="M193.807 49.2163L191.815 55.0676H185.208L196.492 24.9341H202.836L214.438 55.0667H207.608L205.573 49.2154L193.807 49.2163ZM199.628 32.1218L195.518 44.187H203.823L199.628 32.1218Z" fill="white"/>
<path d="M246.781 36.5807L238.546 54.1888H234.99L226.888 36.7381V55.0668H220.853V24.9333H226.874L236.988 46.6855L246.743 24.9333H252.816V55.0668H246.782L246.781 36.5807Z" fill="white"/>
<path d="M265 28.7347C265 31.3245 263.062 32.9385 260.838 32.9385C258.606 32.9385 256.663 31.3245 256.663 28.7347C256.663 26.1459 258.606 24.5427 260.838 24.5427C263.063 24.5427 265 26.1459 265 28.7347ZM257.363 28.7347C257.363 30.9013 258.922 32.2621 260.838 32.2621C262.747 32.2621 264.299 30.9013 264.299 28.7347C264.299 26.5619 262.747 25.2218 260.838 25.2218C258.927 25.2218 257.363 26.5781 257.363 28.7347ZM260.896 26.5926C261.975 26.5926 262.338 27.1641 262.338 27.7817C262.338 28.3477 262.003 28.7275 261.595 28.921L262.562 30.7358H261.77L260.954 29.1272H260.114V30.7358H259.454V26.5926H260.896ZM260.12 28.5204H260.855C261.331 28.5204 261.612 28.2211 261.612 27.845C261.612 27.4652 261.41 27.2211 260.853 27.2211H260.119L260.12 28.5204Z" fill="white"/>
</svg>
