<svg width="24" height="25" viewBox="0 0 24 25" fill="none" xmlns="http://www.w3.org/2000/svg">
<path d="M24 12.9293C24 19.5563 18.627 24.9293 12 24.9293C6.21804 24.9293 1.39204 20.8383 0.256041 15.3923L5.02004 17.3953C5.30504 18.8363 6.58004 19.9423 8.13504 19.9293C9.85804 19.9123 11.24 18.5153 11.251 16.8003L11.258 16.7973L14.86 14.1133C17.164 14.1373 19 12.2803 19 10.0223C19 7.76232 17.166 5.92932 14.907 5.92932C12.673 5.92932 10.859 7.72032 10.817 9.94432L8.17704 13.6373C7.50904 13.6233 6.90804 13.8063 6.38604 14.1473L0.092041 11.5013C0.800041 5.54832 5.85704 0.929321 12 0.929321C18.627 0.929321 24 6.30232 24 12.9293ZM7.42304 18.4063L5.87904 17.7573C6.25904 18.6153 7.11504 19.2183 8.12804 19.2143C9.47404 19.2023 10.55 18.1043 10.538 16.7593C10.526 15.4303 9.43404 14.3493 8.10604 14.3493C7.81904 14.3503 7.53604 14.3993 7.24604 14.5093L8.78804 15.1573C9.68604 15.5353 10.107 16.5683 9.72904 17.4653C9.35304 18.3613 8.32004 18.7833 7.42304 18.4063ZM14.907 12.8043C13.374 12.8043 12.126 11.5553 12.126 10.0223C12.126 8.48832 13.374 7.24032 14.907 7.24032C16.441 7.24032 17.688 8.48832 17.688 10.0223C17.688 11.5553 16.441 12.8043 14.907 12.8043ZM14.907 12.1223C16.066 12.1223 17.007 11.1803 17.007 10.0213C17.007 8.86332 16.067 7.91932 14.907 7.91932C13.747 7.91932 12.805 8.86232 12.805 10.0213C12.806 11.1803 13.748 12.1223 14.907 12.1223Z" fill="#A9D300"/>
</svg>
