<svg width="24" height="24" viewBox="0 0 24 24" fill="none" xmlns="http://www.w3.org/2000/svg">
<path d="M23.9539 12C23.9539 18.627 18.5809 24 11.9539 24C6.1719 24 1.3459 19.909 0.209898 14.463L4.9739 16.466C5.2589 17.907 6.5339 19.013 8.0889 19C9.8119 18.983 11.1939 17.586 11.2049 15.871L11.2119 15.868L14.8139 13.184C17.1179 13.208 18.9539 11.351 18.9539 9.093C18.9539 6.833 17.1199 5 14.8609 5C12.6269 5 10.8129 6.791 10.7709 9.015L8.1309 12.708C7.4629 12.694 6.8619 12.877 6.3399 13.218L0.0458984 10.572C0.753898 4.619 5.8109 0 11.9539 0C18.5809 0 23.9539 5.373 23.9539 12ZM7.3769 17.477L5.8329 16.828C6.2129 17.686 7.0689 18.289 8.0819 18.285C9.4279 18.273 10.5039 17.175 10.4919 15.83C10.4799 14.501 9.3879 13.42 8.0599 13.42C7.7729 13.421 7.4899 13.47 7.1999 13.58L8.7419 14.228C9.6399 14.606 10.0609 15.639 9.6829 16.536C9.3069 17.432 8.2739 17.854 7.3769 17.477ZM14.8609 11.875C13.3279 11.875 12.0799 10.626 12.0799 9.093C12.0799 7.559 13.3279 6.311 14.8609 6.311C16.3949 6.311 17.6419 7.559 17.6419 9.093C17.6419 10.626 16.3949 11.875 14.8609 11.875ZM14.8609 11.193C16.0199 11.193 16.9609 10.251 16.9609 9.092C16.9609 7.934 16.0209 6.99 14.8609 6.99C13.7009 6.99 12.7589 7.933 12.7589 9.092C12.7599 10.251 13.7019 11.193 14.8609 11.193Z" fill="#A9D300"/>
</svg>
