<svg width="24" height="24" viewBox="0 0 24 24" fill="none" xmlns="http://www.w3.org/2000/svg">
<path d="M23.9998 12C23.9998 18.627 18.6268 24 11.9998 24C6.2178 24 1.3918 19.909 0.255797 14.463L5.0198 16.466C5.3048 17.907 6.5798 19.013 8.1348 19C9.8578 18.983 11.2398 17.586 11.2508 15.871L11.2578 15.868L14.8598 13.184C17.1638 13.208 18.9998 11.351 18.9998 9.093C18.9998 6.833 17.1658 5 14.9068 5C12.6728 5 10.8588 6.791 10.8168 9.015L8.1768 12.708C7.5088 12.694 6.9078 12.877 6.3858 13.218L0.0917969 10.572C0.799797 4.619 5.8568 0 11.9998 0C18.6268 0 23.9998 5.373 23.9998 12ZM7.4228 17.477L5.8788 16.828C6.2588 17.686 7.1148 18.289 8.1278 18.285C9.4738 18.273 10.5498 17.175 10.5378 15.83C10.5258 14.501 9.4338 13.42 8.1058 13.42C7.8188 13.421 7.5358 13.47 7.2458 13.58L8.7878 14.228C9.6858 14.606 10.1068 15.639 9.7288 16.536C9.3528 17.432 8.3198 17.854 7.4228 17.477ZM14.9068 11.875C13.3738 11.875 12.1258 10.626 12.1258 9.093C12.1258 7.559 13.3738 6.311 14.9068 6.311C16.4408 6.311 17.6878 7.559 17.6878 9.093C17.6878 10.626 16.4408 11.875 14.9068 11.875ZM14.9068 11.193C16.0658 11.193 17.0068 10.251 17.0068 9.092C17.0068 7.934 16.0668 6.99 14.9068 6.99C13.7468 6.99 12.8048 7.933 12.8048 9.092C12.8058 10.251 13.7478 11.193 14.9068 11.193Z" fill="#A9D300"/>
</svg>
