<svg width="159" height="48" viewBox="0 0 159 48" fill="none" xmlns="http://www.w3.org/2000/svg">
<path d="M23.8855 0C11.2947 0 0.980147 9.7212 0 22.0753L12.8465 27.3938C13.935 26.6484 15.25 26.2117 16.6647 26.2117C16.7915 26.2117 16.9177 26.216 17.0429 26.2231L22.7558 17.9314C22.7558 17.8918 22.7552 17.8533 22.7552 17.8142C22.7552 12.8234 26.8097 8.76308 31.7944 8.76308C36.7785 8.76308 40.833 12.8234 40.833 17.8142C40.833 22.8051 36.7785 26.866 31.7944 26.866C31.7256 26.866 31.6573 26.8643 31.589 26.8627L23.4412 32.6841C23.4455 32.7899 23.4493 32.8979 23.4493 33.0053C23.4493 36.7521 20.4059 39.799 16.6647 39.799C13.3807 39.799 10.6348 37.452 10.0128 34.3438L0.825729 30.5406C3.67027 40.6144 12.9131 48 23.8855 48C37.1231 48 47.8538 37.2545 47.8538 24.0008C47.8538 10.745 37.1226 0 23.8855 0Z" fill="#222222"/>
<path d="M15.0197 36.4163L12.0755 35.1983C12.5972 36.2861 13.4999 37.197 14.6984 37.6972C17.2894 38.7779 20.2764 37.5469 21.3563 34.9503C21.8791 33.6949 21.8824 32.3087 21.3638 31.05C20.8464 29.7908 19.8701 28.8088 18.6147 28.2847C17.369 27.7655 16.0345 27.7845 14.862 28.2277L17.9033 29.487C19.8142 30.2845 20.718 32.4818 19.9215 34.3953C19.1267 36.3094 16.9307 37.2144 15.0197 36.4163Z" fill="#222222"/>
<path d="M37.8167 17.8142C37.8167 14.489 35.1152 11.7834 31.7938 11.7834C28.473 11.7834 25.771 14.489 25.771 17.8142C25.771 21.14 28.473 23.8445 31.7938 23.8445C35.1152 23.844 37.8167 21.1394 37.8167 17.8142ZM27.2794 17.8039C27.2794 15.3017 29.3053 13.2737 31.8041 13.2737C34.303 13.2737 36.3288 15.3017 36.3288 17.8039C36.3288 20.3061 34.303 22.3341 31.8041 22.3341C29.3053 22.3341 27.2794 20.3055 27.2794 17.8039Z" fill="#222222"/>
<path d="M73.4509 16.421L71.8449 19.2477C70.608 18.3823 68.9316 17.8615 67.4682 17.8615C65.7956 17.8615 64.7607 18.5548 64.7607 19.7967C64.7607 21.3055 66.5991 21.6565 69.3315 22.6385C72.2687 23.6786 73.9569 24.9009 73.9569 27.5946C73.9569 31.2801 71.0626 33.3499 66.9025 33.3499C64.875 33.3499 62.4293 32.8258 60.5491 31.6805L61.7206 28.5468C63.2479 29.3546 65.0749 29.8337 66.7036 29.8337C68.8991 29.8337 69.9426 29.0226 69.9426 27.8236C69.9426 26.4515 68.3513 26.0392 65.7826 25.1874C62.8551 24.2086 60.8266 22.9244 60.8266 19.9432C60.8266 16.5811 63.5156 14.6502 67.3847 14.6502C70.0813 14.6502 72.2486 15.5058 73.4509 16.421Z" fill="#222222"/>
<path d="M86.0048 18.2076V33.0401H82.2234V18.2076H76.7348V14.96H91.4771V18.2076H86.0048Z" fill="#222222"/>
<path d="M99.4484 18.1979V22.2718H106.685V25.5194H99.4484V29.7626H107.844V33.0401H95.6681V14.96H107.844V18.1979H99.4484Z" fill="#222222"/>
<path d="M116.284 29.5298L115.089 33.0405H111.125L117.895 14.9604H121.701L128.663 33.04H124.565L123.344 29.5292L116.284 29.5298ZM119.777 19.2731L117.311 26.5122H122.294L119.777 19.2731Z" fill="#222222"/>
<path d="M148.069 21.9484L143.127 32.5133H140.994L136.133 22.0429V33.0401H132.512V14.96H136.124L142.193 28.0113L148.046 14.96H151.69V33.0401H148.069L148.069 21.9484Z" fill="#222222"/>
<path d="M159 17.2408C159 18.7947 157.837 19.7631 156.503 19.7631C155.163 19.7631 153.998 18.7947 153.998 17.2408C153.998 15.6876 155.163 14.7256 156.503 14.7256C157.838 14.7256 159 15.6876 159 17.2408ZM154.418 17.2408C154.418 18.5408 155.353 19.3573 156.503 19.3573C157.648 19.3573 158.58 18.5408 158.58 17.2408C158.58 15.9371 157.648 15.1331 156.503 15.1331C155.356 15.1331 154.418 15.9469 154.418 17.2408ZM156.537 15.9556C157.185 15.9556 157.403 16.2985 157.403 16.669C157.403 17.0086 157.202 17.2365 156.957 17.3526L157.537 18.4415H157.062L156.573 17.4763H156.068V18.4415H155.673V15.9556H156.537ZM156.072 17.1123H156.513C156.799 17.1123 156.967 16.9327 156.967 16.707C156.967 16.4791 156.846 16.3326 156.512 16.3326H156.071L156.072 17.1123Z" fill="#222222"/>
</svg>
