<svg width="24" height="25" viewBox="0 0 24 25" fill="none" xmlns="http://www.w3.org/2000/svg">
<path d="M23.9998 12.9293C23.9998 19.5563 18.6268 24.9293 11.9998 24.9293C6.2178 24.9293 1.3918 20.8383 0.255797 15.3923L5.0198 17.3953C5.3048 18.8363 6.5798 19.9423 8.1348 19.9293C9.8578 19.9123 11.2398 18.5153 11.2508 16.8003L11.2578 16.7973L14.8598 14.1133C17.1638 14.1373 18.9998 12.2803 18.9998 10.0223C18.9998 7.76232 17.1658 5.92932 14.9068 5.92932C12.6728 5.92932 10.8588 7.72032 10.8168 9.94432L8.1768 13.6373C7.5088 13.6233 6.9078 13.8063 6.3858 14.1473L0.0917969 11.5013C0.799797 5.54832 5.8568 0.929321 11.9998 0.929321C18.6268 0.929321 23.9998 6.30232 23.9998 12.9293ZM7.4228 18.4063L5.8788 17.7573C6.2588 18.6153 7.1148 19.2183 8.1278 19.2143C9.4738 19.2023 10.5498 18.1043 10.5378 16.7593C10.5258 15.4303 9.4338 14.3493 8.1058 14.3493C7.8188 14.3503 7.5358 14.3993 7.2458 14.5093L8.7878 15.1573C9.6858 15.5353 10.1068 16.5683 9.7288 17.4653C9.3528 18.3613 8.3198 18.7833 7.4228 18.4063ZM14.9068 12.8043C13.3738 12.8043 12.1258 11.5553 12.1258 10.0223C12.1258 8.48832 13.3738 7.24032 14.9068 7.24032C16.4408 7.24032 17.6878 8.48832 17.6878 10.0223C17.6878 11.5553 16.4408 12.8043 14.9068 12.8043ZM14.9068 12.1223C16.0658 12.1223 17.0068 11.1803 17.0068 10.0213C17.0068 8.86332 16.0668 7.91932 14.9068 7.91932C13.7468 7.91932 12.8048 8.86232 12.8048 10.0213C12.8058 11.1803 13.7478 12.1223 14.9068 12.1223Z" fill="#A9D300"/>
</svg>
