<svg width="265" height="81" viewBox="0 0 265 81" fill="none" xmlns="http://www.w3.org/2000/svg">
<path d="M39.8091 0.929321C18.8245 0.929321 1.63358 17.1313 0 37.7216L21.4108 46.5857C23.225 45.3433 25.4166 44.6154 27.7744 44.6154C27.9858 44.6154 28.1962 44.6227 28.4048 44.6344L37.9263 30.815C37.9263 30.749 37.9254 30.6848 37.9254 30.6197C37.9254 22.3017 44.6828 15.5345 52.9906 15.5345C61.2976 15.5345 68.0549 22.3017 68.0549 30.6197C68.0549 38.9378 61.2976 45.7059 52.9906 45.7059C52.8759 45.7059 52.7621 45.7032 52.6484 45.7005L39.0686 55.4029C39.0758 55.5792 39.0822 55.7592 39.0822 55.9382C39.0822 62.1828 34.0099 67.261 27.7744 67.261C22.3012 67.261 17.7246 63.3493 16.688 58.1689L1.37622 51.8303C6.11711 68.62 21.5219 80.9293 39.8091 80.9293C61.8719 80.9293 79.7564 63.0201 79.7564 40.9307C79.7564 18.8376 61.871 0.929321 39.8091 0.929321Z" fill="white"/>
<path d="M25.0329 61.6231L20.1258 59.5931C20.9954 61.4061 22.4999 62.9243 24.4974 63.758C28.8156 65.5592 33.794 63.5075 35.5938 59.1799C36.4652 57.0875 36.4706 54.7772 35.6064 52.6794C34.744 50.5807 33.1168 48.944 31.0244 48.0705C28.9484 47.2052 26.7242 47.2368 24.7701 47.9756L29.8388 50.0743C33.0237 51.4035 34.53 55.0656 33.2025 58.2549C31.8778 61.445 28.2178 62.9532 25.0329 61.6231Z" fill="white"/>
<path d="M63.0278 30.6197C63.0278 25.0776 58.5253 20.5682 52.9897 20.5682C47.455 20.5682 42.9516 25.0776 42.9516 30.6197C42.9516 36.1626 47.455 40.6702 52.9897 40.6702C58.5253 40.6693 63.0278 36.1617 63.0278 30.6197ZM45.4657 30.6025C45.4657 26.4322 48.8421 23.0522 53.0069 23.0522C57.1716 23.0522 60.548 26.4322 60.548 30.6025C60.548 34.7728 57.1716 38.1528 53.0069 38.1528C48.8421 38.1528 45.4657 34.7719 45.4657 30.6025Z" fill="white"/>
<path d="M122.418 28.2977L119.742 33.0088C117.68 31.5665 114.886 30.6985 112.447 30.6985C109.659 30.6985 107.934 31.8541 107.934 33.9238C107.934 36.4385 110.998 37.0235 115.552 38.6602C120.448 40.3936 123.262 42.4309 123.262 46.9204C123.262 53.0628 118.438 56.5124 111.504 56.5124C108.125 56.5124 104.049 55.6389 100.915 53.7301L102.868 48.5073C105.413 49.8537 108.458 50.6521 111.173 50.6521C114.832 50.6521 116.571 49.3003 116.571 47.3019C116.571 45.0151 113.919 44.3279 109.638 42.9083C104.759 41.2771 101.378 39.1367 101.378 34.168C101.378 28.5645 105.859 25.3463 112.308 25.3463C116.802 25.3463 120.414 26.7723 122.418 28.2977Z" fill="white"/>
<path d="M143.341 31.2754V55.9962H137.039V31.2754H127.891V25.8627H152.462V31.2754H143.341Z" fill="white"/>
<path d="M165.747 31.2591V38.049H177.808V43.4617H165.747V50.5337H179.741V55.9962H159.447V25.8627H179.741V31.2591H165.747Z" fill="white"/>
<path d="M193.807 50.1456L191.815 55.9969H185.208L196.492 25.8634H202.836L214.438 55.996H207.608L205.573 50.1447L193.807 50.1456ZM199.628 33.0511L195.518 45.1163H203.823L199.628 33.0511Z" fill="white"/>
<path d="M246.781 37.5101L238.546 55.1181H234.99L226.888 37.6674V55.9962H220.853V25.8627H226.874L236.988 47.6148L246.743 25.8627H252.816V55.9962H246.782L246.781 37.5101Z" fill="white"/>
<path d="M265 29.6641C265 32.2538 263.062 33.8678 260.838 33.8678C258.606 33.8678 256.663 32.2538 256.663 29.6641C256.663 27.0752 258.606 25.472 260.838 25.472C263.063 25.472 265 27.0752 265 29.6641ZM257.363 29.6641C257.363 31.8306 258.922 33.1915 260.838 33.1915C262.747 33.1915 264.299 31.8306 264.299 29.6641C264.299 27.4912 262.747 26.1511 260.838 26.1511C258.927 26.1511 257.363 27.5075 257.363 29.6641ZM260.896 27.5219C261.975 27.5219 262.338 28.0934 262.338 28.711C262.338 29.277 262.003 29.6568 261.595 29.8503L262.562 31.6651H261.77L260.954 30.0565H260.114V31.6651H259.454V27.5219H260.896ZM260.12 29.4498H260.855C261.331 29.4498 261.612 29.1505 261.612 28.7743C261.612 28.3945 261.41 28.1504 260.853 28.1504H260.119L260.12 29.4498Z" fill="white"/>
</svg>
