<svg width="24" height="20" viewBox="0 0 24 20" fill="none" xmlns="http://www.w3.org/2000/svg">
<path d="M24 2.48625C23.117 2.87825 22.168 3.14225 21.172 3.26125C22.189 2.65225 22.97 1.68725 23.337 0.537246C22.386 1.10125 21.332 1.51125 20.21 1.73225C19.313 0.775246 18.032 0.177246 16.616 0.177246C13.437 0.177246 11.101 3.14325 11.819 6.22225C7.728 6.01725 4.1 4.05725 1.671 1.07825C0.381 3.29125 1.002 6.18625 3.194 7.65225C2.388 7.62625 1.628 7.40525 0.965 7.03625C0.911 9.31725 2.546 11.4512 4.914 11.9262C4.221 12.1142 3.462 12.1582 2.69 12.0102C3.316 13.9662 5.134 15.3892 7.29 15.4292C5.22 17.0522 2.612 17.7772 0 17.4692C2.179 18.8662 4.768 19.6812 7.548 19.6812C16.69 19.6812 21.855 11.9602 21.543 5.03525C22.505 4.34025 23.34 3.47325 24 2.48625Z" fill="#A9D300"/>
</svg>
