<svg width="24" height="20" viewBox="0 0 24 20" fill="none" xmlns="http://www.w3.org/2000/svg">
<path d="M24 2.48637C23.117 2.87837 22.168 3.14237 21.172 3.26137C22.189 2.65237 22.97 1.68737 23.337 0.537368C22.386 1.10137 21.332 1.51137 20.21 1.73237C19.313 0.775368 18.032 0.177368 16.616 0.177368C13.437 0.177368 11.101 3.14337 11.819 6.22237C7.728 6.01737 4.1 4.05737 1.671 1.07837C0.381 3.29137 1.002 6.18637 3.194 7.65237C2.388 7.62637 1.628 7.40537 0.965 7.03637C0.911 9.31737 2.546 11.4514 4.914 11.9264C4.221 12.1144 3.462 12.1584 2.69 12.0104C3.316 13.9664 5.134 15.3894 7.29 15.4294C5.22 17.0524 2.612 17.7774 0 17.4694C2.179 18.8664 4.768 19.6814 7.548 19.6814C16.69 19.6814 21.855 11.9604 21.543 5.03537C22.505 4.34037 23.34 3.47337 24 2.48637Z" fill="#A9D300"/>
</svg>
